<?xml version="1.0" encoding="utf-8"?>
<!-- Generator: Adobe Illustrator 19.2.1, SVG Export Plug-In . SVG Version: 6.00 Build 0)  -->
<svg version="1.1" id="svg2" xmlns="http://www.w3.org/2000/svg" xmlns:xlink="http://www.w3.org/1999/xlink" x="0px" y="0px"
	 viewBox="0 0 730.2 578.4" style="enable-background:new 0 0 730.2 578.4;" xml:space="preserve">
<style type="text/css">
	.st0{fill:#0B7AB7;}
	.st1{fill:#266B90;}
	.st2{fill:#758893;}
	.st3{fill:#017CC2;}
	.st4{fill:#86A4AE;}
	.st5{fill:#E4FCFF;}
	.st6{fill:#137CA7;}
	.st7{fill:#1676AE;}
	.st8{fill:#21749C;}
	.st9{fill:#DBFEFE;}
	.st10{fill:#D8FBFE;}
	.st11{fill:#D3FEFF;}
	.st12{fill:#E0FDFD;}
	.st13{fill:#D7FEFF;}
	.st14{fill:#067BBF;}
	.st15{fill:#1F7CAE;}
	.st16{fill:#AFECF9;}
	.st17{fill:#C9F5FE;}
	.st18{fill:#257691;}
	.st19{fill:#037CC1;}
	.st20{fill:#DBFBFF;}
	.st21{fill:#2073A2;}
	.st22{fill:#D1FEFE;}
	.st23{fill:#1C7AA4;}
	.st24{fill:#BFF6FD;}
	.st25{fill:#B5F1FD;}
	.st26{fill:#0F7898;}
	.st27{fill:#8B9AA1;}
	.st28{fill:#11789F;}
	.st29{fill:#C0F9FC;}
	.st30{fill:#1377BB;}
	.st31{fill:#1276A9;}
</style>
<title>logo</title>
<path id="path14" class="st0" d="M445.8,295.8c1.2,1.8,2,4.7,0.2,6.4c-2.6,2-6,2.6-8.9,3.8c0.3,5.9,6,8.5,10.1,11.5
	c4.4,2.8,6,8.2,6.5,13.1c-4.9,2.2-9.5-1-13.9-2.9c-1.4,4.6-0.9,9.5,1.4,13.7c1.2,2,3.5,3.1,5.8,2.8c5.5-0.6,9.8-4.9,15.3-5.1
	c9.8,0.5,17.1,8.8,26.9,9.2c5.3,0.7,12.5,0.1,15.5,5.6c1,5-1,10.2,0.6,15.1c1.9,3.4,6,4.2,9,6.5c4.8,3.1,5.8,9.3,9.8,13.1
	c4.6,4.7,7.2,11.2,7,17.8c0,3.9-0.1,8.7-3.7,11.1c-2,1.6-4.6,0.8-6.9,0.5c-1.5-4.6,1.3-10.7-2.7-14.3c-3.8-0.8-8.4,0.2-10.3,3.8
	c-2.5,4.4-3.3,9.6-2,14.5c2.6,6.4,11.2,6.5,14.6,12.4c2.8,5.4,2.8,11.7,1.3,17.5c-5.7,0.2-10.4-4.3-16.2-3.4
	c-0.3,2.1-1.5,4.7,0.3,6.5c4.9,5.2,4.2,13.6,0.4,19.2c-1.8,2.6-5.2,3.7-8.2,2.7c-2-1.4-3.3-3.5-4.7-5.4c-3.6,4.4-9.1,6.8-14.8,6.1
	c-4.5-0.7-3.1-6.7-5.6-9.4c-3.3-0.8-6.7-0.6-9.9-1.5c-2.4-1.2-3.6-3.9-2.8-6.5c2.5-3.5,6.2-6,8.8-9.5c-4.3-1.2-9.7-1.1-12.5-5.2
	c-1.3-3.2,0.2-6.6,0.9-9.8c-3.8,2-7.9,4.2-12.4,3.1c-0.5,3.7-0.7,7.8-3.5,10.6c-2.1,2.3-5.2,4.4-8.5,3.5c-3.2-2.6-3.3-7.4-6.6-10
	c-4.5,1-8.1,5-12.9,4.6c-4.7-1.1-8.5-6.2-8.4-11c1.9-2,4.4-3.2,6.7-4.7c0.2-1,0.3-1.9,0.5-2.9c-3.9-0.5-8.2-1.5-10.2-5.3
	c-2.5-3.2-0.5-7.2,0.2-10.7c-5.9,1.6-10.8,5.4-16.3,8s-12.4-0.3-17,4c-1.7,1.4-3.2,2.9-4.9,4.3c1.2-2.7,2-6.1,4.8-7.7
	c4.5-2.7,10-1.7,15-1.5c0-0.8-0.1-1.5-0.1-2.3c3.9-0.3,7.4-2.3,9.6-5.6c2.2-2.8,2.1-6.5,2.4-9.9c5.3,2.7,11.1,4.3,16.2,7.5
	c1.6,0.7,1.7,2.6,1.3,4.1c-2.2,3-5.2,5.3-7.5,8.3c1.8,1.2,3.9,2.7,6.2,1.7c2.2-1.3,3.5-3.4,5.1-5.4c0.5,5.6,2.8,11,2.4,16.6
	c-0.1,3.3-3.9,3.3-6.3,4.3c1.8,0.8,3.7,2.1,5.8,1.3c4.8-1.8,8.4-6.6,13.9-6.2c1.4,4.3,1.6,8.8,2,13.2c1.8-1,4.5-1.2,5-3.5
	c1.2-6.5-3.3-12.4-3.1-18.9c0.2-3.2,2-7,5.7-7c4.2,0.5,7.4,4.2,9,8c1.3,2.7,0.5,5.7,0.4,8.6c4-1.8,4.9-6.3,6.3-10
	c3.8,2.6,7.2,6.5,7.2,11.4c-0.3,2.8-2.1,5.3-2.7,8.1c2.2-0.9,4.3-1.9,6.3-3.1c1.9,0.7,3.8,1.2,5.8,1.8c0.6,3.6,0.7,7.4,0.1,11
	c-1.1,3.9-4.8,5.7-8,7.5c3.1,0.4,6.1,0.6,9.2,0.6c2.7,0.1,5.7,0.1,7.8,2c0.8,3.3-1.3,6.2-2.4,9.2c4.2-2,8.7-5.2,8.6-10.4
	c4.6,1,9.4,2.3,13,5.6c-0.1-2.5,0-5.2-1.7-7.3c-3.4-4.3-7.8-7.6-11.5-11.5c-1.3-1.4-2.1-3.2-2.3-5.1c4.8-2.8,9.7,0.8,14.4,1.8
	c1-2.3,1.7-4.7,3.2-6.7c2.7-2.3,7.7-2.2,9.5,1.1c1,2.1,1.6,4.4,2.5,6.5c-0.1-2.6,0.9-5.8-1.1-7.9c-4.8-6.2-12.4-9.3-19.8-11
	c0.3-0.5,0.9-1.5,1.2-2.1c3.2-4.5,2.9-10.1,3.1-15.3c-0.1-1.9,1.3-3.4,2.3-4.8c2-2.2,3.4-4.9,3.9-7.8c2.6-0.3,5.2-0.7,7.8-1.2
	c2.7-0.3,5.7-1.1,8.2,0.4c2.5,2.5,3.1,6.2,4.6,9.3c0.6-3,1.9-6.6-0.4-9.3c-2.9-3.3-7.3-4.5-11.2-5.9c-4.3-1.5-10.3-2.9-10.5-8.4
	c3.5,0,6.9,0.6,10.2,1.6c-0.7-3-1.9-6.5-5.4-7.2c-8.3-1.7-16.6,1.4-24.7,2.8c-2.7-4.2-6.2-8.2-6.8-13.4c4.6-1.8,8,2.1,11.5,4.3
	c1.3-3.1,2.4-6.6,0.3-9.6c4.2-1.9,8.8-1.8,13.3-1.4c-2.3-6.5-9.3-9.6-15.8-9.9c-8.6-0.4-16.8-3.4-24.1-7.7
	c-3.2,1.7-6.5,3.5-10.2,3.8c-8.2,0.6-16-2.2-24.1-3.1c4.3-6.9,5.8-15.3,11.1-21.5c3.4-2.4,5.7,2.2,7.7,4.3c-1.2-3.8-3.3-7.7-6.9-9.7
	c-5.5-3-12-3.2-18.2-3.7c1.1-1.7,2.4-3.3,3.7-4.8c2.2,0.5,4.4,1.4,6.6,2c-0.8-4.8-4.6-9.2-2.4-14.3c4.5-0.1,7.9,2.8,11.1,5.5
	c-0.4-2.5-0.5-5.2-2.4-7.1c-110.1-87.8-191-40.9-265.4,16.6c-40.7,33.6-74.8,80.9-110.7,112.5c-2-0.5-4.1-0.9-6.1-1.3
	c4.6-1.7,8.6-4.7,11.5-8.7c-16.4,5-33.7,7.5-50.9,6.1c-4.9-0.6-10-1.7-13.9-4.8c-2.2-1.6-2.9-4.4-3.9-6.8
	c12.3,4.8,25.1,8.9,41.1,7.7c18.1-2.4,32.9-10.9,47.8-23.9c67.9-76.6,83.6-87.3,127.9-116.1C306,221.1,367.3,230.5,445.8,295.8
	L445.8,295.8L445.8,295.8z"/>
<path id="path16" class="st1" d="M308.4,303.1c4.6,1.9,4.3,7.2,4.9,11.4C311.9,310.6,310.3,306.8,308.4,303.1z"/>
<path id="path18" class="st1" d="M303.8,309.4c1.5-0.6,4.1,1,4,2.6C306.3,312.5,303.7,311,303.8,309.4z"/>
<path id="path20" class="st2" d="M417.4,310.5c1.5-1.2,2.9,1.5,1.5,2.4C417.3,314.1,416,311.4,417.4,310.5z"/>
<path id="path22" class="st3" d="M323.6,314.1c2.8-1.8,6.4-3.5,9.5-1.6c3.7,2,3.7,6.7,4.1,10.3c1.3-1,2.6-2.2,3.9-3.4
	c1.5,2.8,3.2,5.5,4.8,8.2c-1.7,1.2-3.4,2.4-5,3.7c1.5-0.5,2.9-1.1,4.3-1.8c0.8,0.7,1.6,1.3,2.3,2c1.5,1.4,2.4,3.3,3.5,5
	c-2.6,3.9-7.6,3.7-11.6,4.8c2,3.5,6.1,4.2,9.8,4.9c2.5,0.5,5.1,0.5,7.4,1.6c2.3,1.7,3.7,4.4,5.5,6.6c-1.6,1.7-3,3.4-4.4,5.3
	c1.4,0.3,2.8,0.4,4.2,0.4c2.2-2.1,3.4-5,5.3-7.4c0.2,7-6.7,11.6-13.1,12.4c-1.7,0.2-3.3,0.4-5,0.5c0.1,0.7,0.3,2.2,0.4,2.9
	c3.2,0.6,6.4,0.8,9.6,0.4c4.5-1.2,9.2-3.4,13.9-1.8c-0.6,3.3-1.6,6.6-1.8,10c2.8-0.3,5.5-0.8,8.2-1.2c0.4,2.3,0.5,4.7,0.5,7.1
	c-1.3,2.7-3.7,4.8-5.3,7.3c4.5,0.5,8.1-2.2,11.8-4.3c2.5-1.2,4.2,1.8,5.6,3.3c-2-0.5-3.9-1.2-5.7-2c0.3,2.7,0.8,5.8-1.1,8
	c-3.6,4.5-9.7,5.7-14.6,8.2c4.8,2.7,10.6,1,15.7,2.8c2,1.4,1.6,4.1,2.2,6.3c-1.8,0-3.5,0.1-5.2,0.2c0.1,1.6,0.2,3.3,0.3,5
	c0,0.8,0.1,1.5,0.1,2.3c-5-0.1-10.5-1.2-15,1.5c-2.8,1.6-3.6,5-4.8,7.7c-1.7,3.8-4.3,7.3-5.3,11.4c-3.7,17.9-8.1,36.5-7.8,48.6
	c0.5,18.4,5.8,36.4,13.1,53.2c5,10.7,10.3,21.3,17.3,30.8c6.4,2.2,13.3,1.2,20,1.3h291c10.6,0.3,21.2-0.7,31.7,0.5
	c-3.3,1.7-7,2.5-10.7,2.6c-152.3-0.1-304.6-0.1-457,0c-6.2-0.1-12.5,0.8-18.6-0.7c-1.2-0.1-1.1-1.7-1.5-2.5c-1-4.2-1.3-8.6-3.9-12.2
	c-2.5-3.2-2.6-8.2-6.6-10.2c1.5-2.9,2.7-5.9,3.9-8.9c3.8,0.8,8.1,1.9,10.3,5.4c2.6,3.5,1.4,8.2,1,12.2c4.9-3.5,4.7-10,3.5-15.2
	c1.3-2.5,2.8-5,3.4-7.8c0.4-2.5-0.4-4.9-0.9-7.3l-0.2-1.2c3.8-0.9,9-1.9,11.6,1.9c1,3.4,0.4,7.1,1.3,10.6c2.4-1.7,3.5-4.6,3-7.5
	c-1.1-4.8-4.1-9.7-8.9-11.5c-4.1-1.2-8,1.3-11.4,3.3c0.8-3.7,0.6-7.6-2.7-9.9c1.1-1.6,2.5-3.1,2.8-5.1c-0.1-4-2.2-7.6-5.6-9.7
	c-6.9-1.5-9.7,8.9-16.5,6.9c-6.3-1.7-14-3.7-16.9-10.2c-2-6.4-0.6-13.3-0.9-19.9c2.1-0.9,4.2-1.9,6.4-2.7l-0.4,1.2
	c-0.4,1.3-0.8,2.7-1.2,4c2.8-0.4,5.5-1.2,8.1-2.4c0.1,0.5,0.4,1.3,0.5,1.8l-4.5,3c0.7,1.2,1.4,2.4,2.1,3.7c2.2-0.9,4.3-2.2,6-3.9
	c1.2,2.6,2.6,5.3,3,8.2c-0.4,2.3-3.4,2.4-5,3.5c1.7,0.5,3.5,2.2,5.4,1.3c3.5-2.3,4.2-7.1,7.5-9.5c1.8-1.1,4.1-1.1,6-0.1
	c2.5,1.6,0.9,4.9,1.2,7.2c2-1.2,5.2-1.6,5.8-4.3c0.9-3.3-0.1-6.8-0.4-10.1c5.8-1.5,12,1.1,16.7,4.4c0,5.5-3.2,10.2-5.2,15
	c7.6,0.2,10.4-9.4,18-9.4c-1.2,0.6-2.3,1.3-3.5,1.9c1.5,1.1,3.1,2.2,4.7,3.3c0.8,6-2.2,11.3-4.8,16.5c5.5,1.3,8.5-4,12.4-6.5
	c2.6-1.9,5.8,1.4,5.4,4.1c-0.3,4.1-2.3,7.8-3.2,11.8c1.8-0.3,4.2,0.4,5.3-1.4c2.8-3.9,3-9.1,6.3-12.7c3.3-1.5,7.1-0.6,9.5,2.1
	c0.5,4.1-0.5,8.3,1.3,12.2c1.7-1,4.9-0.9,5.2-3.3c1-5.7-3.5-10.2-6.4-14.6c0.2-3.1,2-5.8,2.8-8.8c0.3-2.6-0.3-5.2-0.7-7.8l6.6-3.6
	c-0.8,0-2.3,0.2-3,0.2c3.9-0.6,8.3-1.1,11.9,1c2.6,1.7,3.2,5.1,2.3,7.9c-0.4,1.4-0.6,2.9-0.9,4.3c1.7-1.3,3.7-2.3,4.9-4.1
	c1.2-1.8,0.5-4.3,0.1-6.3c-1.7-4.1-4.2-7.9-7.4-11c3.5-2.2,6.2-5.8,10.1-7.3c4,0.2,4.3,5.4,6.5,7.9c0.4-2.8,0.3-6-2.3-7.7
	c-5-3.7-12-6.3-17.9-3.4c-5.1,2.3-9.1-3.9-14.2-3.6c-3.2,1.5-5.4,4.5-8,6.8c-2.3-0.7-4.6-1.3-7-2c1.3-2.4,2.9-4.9,2.5-7.7
	c-0.1-2.5-1.9-4.2-3.3-6c3.8-2.5,8.2-4.8,12.9-3.6c2.7,1.8,5,4.2,7.6,6.3c1.3-4,0.3-9.6-4.2-10.9c-5.1-1-10-2.5-14.7-4.5
	c-6.3-2.4-12.3,2.3-17.8,4.7c-4.1,1.7-8.5,5.1-13,3.1c-3.7-1.3-7.1-4.8-6.2-9c0.9-3.3,4.6-4.5,7.4-6c0.6,3,1.5,6,2.6,8.9
	c1.6-1.5,4.1-2.7,4.1-5.2c0.4-4.2-2.3-7.9-5.2-10.7c-0.1-2.2-0.3-4.4-0.4-6.6c3.5,0.8,7.1,1.9,9.4,4.8c0.1,0.6,0.2,1.8,0.3,2.4
	c1.1-1.2,2.1-2.6,3-4c-0.9-4.7-5.8-7.2-9.7-9.2c-5.5-1.7-10.6,2.9-16.2,2.1c-2.5,0.4-2.9-2.6-3.7-4.2c2.5-0.2,5-0.3,7.4-0.5
	c-1.7-3.3-5-5.9-8.9-5.6c-4.5-0.3-7.9,2.9-11.2,5.4c-4.1,0.8-8.3-0.8-11.8-2.9c-6.8-4.6-10-12.4-13.5-19.5c-3-6.5-6.2-13.9-4.1-21.1
	c1.5-5.1,9.2-8,12.9-3.5c1.9,3.8-0.9,7.5-2.1,11c1.7,0.1,3.4-0.1,5.1-0.4c3.9-3.5,3.8-9.2,3.3-14.1c2.1-1,4.1-2.5,6.4-3
	c2.8,0,5.4,1.5,7.9,2.7c0.3,5.2-1.7,10.1-1.4,15.3c2.1-0.5,5.1-0.3,5.9-2.9c3.3-6.1-2.1-12.8-0.1-18.9c3.8-1.8,8-1,12.1-1.2
	c1.5-0.1,2.9-0.1,4.4-0.1c3.8,4.2,4.9,10,6,15.4c1-1.3,2.9-2.5,2.6-4.4c-0.8-7.4-5.4-13.7-7.2-20.9c1.9-1,3.8-1.8,5.9-2.3
	c3.6,3.4,5.9,7.9,9,11.7c0.3-2.5,1.3-5.2,0-7.5c-1.7-2.9-4.7-4.7-7.7-6.2c-3.2-1.7-7.6-2.4-8.7-6.4c-1.9-3.1,0.9-6.4,4-6.8
	c5.1-0.9,11.2-1.2,15.4,2.2c3.6,3,2.5,8.1,2.1,12.2l4.3-0.9c0.4-3,0.2-6-0.7-8.9c2.5,0.3,5.1,0,7.6,0.2c5.5,5.4,5,14,2.8,20.7
	c4.6-1.4,6.8-5.8,8.8-9.8c4.8,0.5,10.4,1.9,13.1,6.3c2.1,3.2,0.2,7,0.3,10.5c4.6-1.9,5.1-7.5,4-11.7c-3.1-7.1-9.3-12.4-12.1-19.6
	c2.5-2,4.9-4.2,7.2-6.5c2.6,1.6,5.3,2.9,8.1,4c0.4,3.1,1,6.3,1.9,9.3C328.3,327,324.8,319.6,323.6,314.1L323.6,314.1L323.6,314.1z"
	/>
<path id="path24" class="st1" d="M300.9,316.4c2.9-1.1,6-0.4,9-0.2c-0.3,0.8-0.5,1.7-0.8,2.5C306.5,317.5,303.7,316.8,300.9,316.4z"
	/>
<path id="path26" class="st1" d="M345.2,329.6c4-2.6,8.2-6.1,13.4-4.9c0.7,2.5,1.3,5,1.8,7.5c-1.8-2.1-3.3-4.8-6.2-5.4
	c-3.2-0.3-5,2.7-6.7,4.9C346.7,330.9,346,330.3,345.2,329.6z"/>
<path id="path28" class="st4" d="M238.6,331.3c1.7,0.1,1.5,4-0.1,4.2C237.6,334.2,237.6,332.5,238.6,331.3z"/>
<path id="path30" class="st5" d="M264.5,336.2c2.9,1.5,6,3.3,7.7,6.2c1.3,2.3,0.3,5.1,0,7.5c-3.1-3.8-5.3-8.3-9-11.7
	C263.7,337.6,264.1,336.9,264.5,336.2z"/>
<path id="path32" class="st6" d="M238.4,340.1c0.5-1.1,1-2.1,1.5-3.2c6.5,3,12,7.7,16.1,13.6c-1.5,0-2.9,0.1-4.4,0.2
	c-0.6-1.8-1-3.9-2.7-5.1c-4.4-3.2-9.9-4.1-14.9-5.7C235.5,340,237,340,238.4,340.1z"/>
<path id="path34" class="st7" d="M226.2,340.8c6.1,0.5,12,2.3,17.3,5.2c-2.5,0.9-5.1,2.7-7.8,1.9
	C232.1,346.2,229.2,343.4,226.2,340.8z"/>
<path id="path36" class="st8" d="M349.2,346.2c2.7-0.7,5.5-2.7,8.3-1.2c3.2,1.9,4.7,5.8,4.6,9.4c-1.8-2.2-3.2-4.9-5.5-6.6
	C354.3,346.7,351.7,346.7,349.2,346.2z"/>
<path id="path38" class="st9" d="M349.2,365.7c1.6-0.2,3.3-0.3,5-0.5c1.6,1.4,3.2,2.7,5,3.8c-3.2,0.4-6.4,0.3-9.6-0.4
	C349.5,367.9,349.3,366.5,349.2,365.7z"/>
<path id="path40" class="st10" d="M379.5,376c1.4,3.1,2.1,6.4,2.2,9.8c1.6,0.1,3.2,0.1,4.8,0.2c-3.7,2.1-7.3,4.8-11.8,4.3
	c1.6-2.5,4-4.6,5.3-7.3C380.1,380.7,380,378.3,379.5,376z"/>
<path id="path42" class="st11" d="M515.4,392.1c4,1.4,8.3,2.7,11.2,5.9c2.3,2.7,1,6.3,0.4,9.3c-1.5-3.1-2-6.8-4.6-9.3
	c-2.4-1.6-5.5-0.8-8.2-0.4c1.5-0.7,2.9-1.3,4.4-1.9C517.6,394.5,516.5,393.3,515.4,392.1z"/>
<path id="path44" class="st1" d="M491.6,401.3c3.5,0.7,7.3,1.6,9.2,5c-2.2-0.4-4.4-0.9-6.6-1.3l-0.9-0.2
	C492.7,403.6,492.1,402.4,491.6,401.3z"/>
<path id="path46" class="st12" d="M494.2,404.9c2.2,0.4,4.4,0.9,6.6,1.3c0.5,0.1,1.4,0.3,1.8,0.4c-1,1.4-2.4,2.9-2.3,4.8
	c-0.2,5.2,0.1,10.8-3.1,15.3c-1.5-4.9,1.3-9.4,1.7-14.1C498.2,409.6,496,407.3,494.2,404.9z"/>
<path id="path48" class="st13" d="M263.5,412c3.9,2,8.8,4.5,9.7,9.2c-0.9,1.4-1.9,2.8-3,4c-0.1-0.6-0.2-1.8-0.3-2.4
	c-0.1-1.1-0.2-2.2-0.2-3.4c-2.3-1.3-4.6-2.5-7-3.6C262.8,414.9,263.3,413,263.5,412z"/>
<path id="path50" class="st8" d="M259,416.2c1.2-0.5,2.5-0.6,3.7-0.3c2.4,1.1,4.7,2.3,7,3.6c0,1.1,0.1,2.2,0.2,3.4
	c-2.3-2.9-5.9-4-9.4-4.8c0.1,2.2,0.2,4.4,0.4,6.6l-3.3-1.5C257.9,420.7,257.8,418.3,259,416.2z"/>
<path id="path52" class="st14" d="M57,422.2c2.1,0.4,4.1,0.8,6.1,1.3C45,438.3,24,452.1,0,453.8c0.6-2.8,1.3-6,4.1-7.4
	c7.7-4.5,17.5-2,25.3-6.4c-9.1-0.1-18.1,1.2-27.2,0.9c-2-5.1-1.8-10.6-1.9-16c4.1,1.8,8.4,2.9,12.9,3
	C40.2,429.4,41.5,427.1,57,422.2z"/>
<path id="path54" class="st15" d="M289,438.7c4.7,2,9.6,3.5,14.7,4.5c4.5,1.3,5.5,6.9,4.2,10.9c-1.6-3.6-2.2-8.4-6.3-10.1
	c-3.8-1.3-8-0.6-11.9,0c-2.5,0.6-4.9,1.4-7.3,2.1c0.2-1.6,0.4-3.2,0.8-4.8c2.3-1.1,4.8,0.9,7.1,1.3
	C289.8,441.2,289.4,439.9,289,438.7z"/>
<path id="path56" class="st16" d="M289.7,444c3.9-0.6,8.1-1.3,11.9,0c4.1,1.6,4.7,6.5,6.3,10.1c-2.5-2.1-4.8-4.5-7.6-6.3l1.6-2
	C298,444.4,293.8,443.8,289.7,444z"/>
<path id="path58" class="st17" d="M466.6,461.8c3.2-1.9,6.9-3.7,8-7.5c0.2,2.8,0.6,5.5,1.2,8.2C472.7,462.4,469.6,462.2,466.6,461.8
	z"/>
<path id="path60" class="st18" d="M96,463.5c1.7,0.4,3.4,0.8,5.2,1.1c-1.1,0.5-2.3,1-3.4,1.5c0.2,1.6,0.4,3.3,0.7,5l-3.4-2.8
	C95.4,466.6,95.7,465.1,96,463.5z"/>
<path id="path62" class="st19" d="M82.7,480.5c4.6-3.6,9.3-7.3,12.4-12.3c1.1,0.9,2.2,1.9,3.4,2.8c1.6,1.4,3.6,2.4,5.7,2.9
	c0.9,4.6,5.5,6.5,9.8,6.1c0.1,2,0.1,4.1,0.2,6.1c-2.5,0.3-5,0.5-7.5,0.8c1.1,2.4,2.4,5.7,5.6,5.2c5.2-1.9,8.1-7.3,13.3-9.2
	c3.3-1.1,6.1,2.5,5,5.6c-1.9,0.3-3.7,0.6-5.6,0.7c1.8,1,3.8,2.7,6,1.9c2-0.8,3.5-2.4,5.2-3.7c1,4.6,1.6,11.8-4.1,13.6
	c-1.6,0.4-3.2,0.8-4.9,1.3c1.2,1.1,2.4,2.3,3.7,3.3c3.2,0.7,6.8-0.3,9.7,1.4c2.1,2.9,1.4,7.1-1,9.6c-1.6,0.6-3.3,1.1-5,1.5l0.4,2.4
	c6.3-0.7,10-6.4,14.6-10.1c-2.3,6.9-5.9,13.2-10.5,18.8c-1.8,2-3.7,4-6.2,4.9s-5.4-0.2-8.1-0.4c1.4,1.4,2.6,3.2,4.5,4
	c2.6,0.6,5.1-0.4,7.5-1.1c-0.6,3.9,1.3,7.5,1.2,11.4c-3.6,3.3-8.8,3.5-13.4,4c1.5,2.1,3.2,4.5,6,4.8c4.6,0.7,9.3,0.2,14,0
	c0.6,3.2,1.5,7.1-1.3,9.5c-2.8,3-7.2,2.4-10.9,2.3c0.2,1,0.3,2,0.5,3c3.9,0.9,9.1,3.1,12.4-0.4c3.8-3.3,5.5-8.1,7.8-12.4
	c0.3-0.5,0.9-1.4,1.2-1.8c2.1-2.5,4.4-5.3,4.3-8.8c0.4-2.9-2-4.9-3.5-7c5.1-1.3,11.3-2.5,15.6,1.4c3.1,3.6,0.6,8.6,0.5,12.8
	c5.1-3.5,9.6-10.4,6.3-16.5c4.7-3.3,9.7-6.3,13.6-10.6c2.1-2.1,2.1-5.2,2.9-7.9c1.7,3.7,0.3,7.6-1.7,10.9c1.1,1.9,2.1,3.8,3,5.7
	c-1.5,2.7-2.8,5.5-2.9,8.7c4.9-0.2,6.7-5,8.7-8.7c-0.2,3.6,0,7.2-0.5,10.8c-0.3,3-2.6,5.1-4.2,7.5c3.3,0.1,5.9-1.9,8.8-3
	c3,0,4,3.8,4.5,6.2c0.8,5.4-2.6,9.9-6.7,13c1.7,0.5,3.5,2.2,5.3,1c4.2-3,5.8-8.2,9.5-11.7c1.6-1.5,4.1-1.8,6-0.7
	c3.7,2.7,4.7,7.4,6.3,11.4c-1.2,1.5-2.3,3.4-4,4.5c-2.3,1-4.8,0.9-7.2,1.1c-36,0.4-71.9,0-107.9,0.2c-7.8-0.1-15.6-0.3-23.4,0.6
	c-5.8,0.3-11.7,0.9-17.5,0.2c-2.9-0.4-4.8-2.7-7-4.3c0.6-3.4,1-7.2,3.8-9.6c1.5-1.7,3.8-1.5,5.9-1.7c0.8,2.1,1.5,4.3,2.2,6.5
	c1.2-1.9,2.7-3.9,1.8-6.2c-1.9-5.4-8.2-8.8-13.7-6.7c-1.2-3.3-2.2-7.6-6.2-8.4c-8-1.2-14.4,5.1-21,8.5c-6.2,3.5-13.6,0.2-18.9-3.6
	c-0.5-2.6-0.6-5.3-1-8c1.2,0.6,2.5,1.2,3.7,1.8c0.4-0.7,0.8-1.4,1.1-2.2c2.4-5.4,0.3-11.6-0.1-17.2c2.6-0.7,6.4-2.4,8.3,0.5
	c2.8,4.3,1.7,10.1,4.9,14.3c4.7-4.1,2.8-10.8,3.7-16.3c2.1,0.1,4.2,0.3,6.3,0.6c0.8-2.9,1.6-5.7,2.3-8.6c3.3,1.5,6.6,3,10,4.2
	l0.6,0.2c-0.1,1.8-0.2,3.5-0.1,5.3c1.1-2,2.1-4.1,2.9-6.2c1.9,2.7,4.2,5.2,5.5,8.2c1.1,2.9,1,6.1,1.5,9.2c3.5-4,2.2-9.4,1.1-14
	c2.3-1,4.6-2.3,7.2-2.1c2.6,0.2,5.1,2.2,5,4.9c-0.8,1.2-1.9,2.3-2.8,3.4c0.4,0.8,0.7,1.7,1,2.5c0.5,0,1.7,0.1,2.2,0.1
	c0.8-1.9,1.5-3.8,2.2-5.7c0.4,1.2,0.8,2.4,1.2,3.7c2-0.8,4-1.5,6-2.1c2,4.3,4,9,3.4,13.9c-0.2,2.8-3.3,3.8-5.1,5.5
	c0.7,1.1,1.4,2.1,2.1,3.1c3.7-1.2,5.8-5,7.6-8.2c-1.6-6.6-3.2-13.3-1.8-20.1c1.3,1,2.7,1.9,4.1,2.9c1.9,1.2,3.1-1.8,4.6-2.7
	c2.7-2,5.6-3.9,8.6-5.4l0.8-0.4c0.9,3.4,1.4,6.8,1.6,10.3c0.6,0.4,1.8,1.1,2.4,1.5c1.8-2.7,3.4-5.9,2.4-9.2
	c-1.8-5.4-6.2-9.5-11.7-10.8c-3.9-1.1-8-1-12-1.9c-0.6-1.2-1.2-2.4-1.7-3.7c0.6,0.1,1.8,0.2,2.4,0.3c-1.2-3.9-4.3-8.2-2.3-12.4
	c0.3-0.5,0.9-1.6,1.2-2.2c-1.1-2.7-2.5-5.4-2.5-8.4C90.1,481.5,86.4,481.2,82.7,480.5z"/>
<path id="path64" class="st1" d="M241.8,474.4c1.4-3,4.4-4.2,7.6-4C247.1,472.1,244.5,473.5,241.8,474.4z"/>
<path id="path66" class="st20" d="M208.5,476.8c0.9-1.8,3.9-1.5,5.7-2.2c0.3,1,0.9,2.9,1.2,3.9c-2.6,1.2-5.3,2-8.1,2.4
	C207.7,479.5,208.1,478.2,208.5,476.8z"/>
<path id="path68" class="st21" d="M302.2,485.2c2.6-1.1,5.2-2.4,8-2.8c0.8,0,2.3-0.2,3.1-0.2l-6.6,3.6c0.3,2.6,1,5.2,0.7,7.8
	c-0.8,3-2.5,5.7-2.8,8.8c-2.8-2.9-6-5.4-8.9-8.3c1.1-1.2,2.3-2.4,3.5-3.6c0.7,1.1,1.4,2.3,2.1,3.4c1,1.5,2.1,2.9,3.2,4.4
	c1.3-2.4,2.2-5.1,1.5-7.9C304.8,488.6,303.5,486.9,302.2,485.2z"/>
<path id="path70" class="st22" d="M328.6,485.3c0.3,2,1,4.4-0.1,6.3c-1.1,1.9-3.2,2.8-4.9,4.1c0.3-1.5,0.6-2.9,0.9-4.3
	C325.4,489.1,327.1,487.2,328.6,485.3z"/>
<path id="path72" class="st1" d="M292.8,486.7c1.9,0.1,3.4,1.2,5,2.1c-2.3,0.9-4.6,1.8-6.9,2.5C291.4,489.7,292,488.2,292.8,486.7z"
	/>
<path id="path74" class="st23" d="M85.8,487.1c4.1-0.7,7.1,2,9.8,4.5c-2.1,4.1,1.1,8.4,2.3,12.4c-0.6-0.1-1.8-0.2-2.4-0.3
	c-0.8-2.8-0.3-6.6-3.2-8.3c-1.9-1.1-3.6-2.3-5.3-3.7C86.4,490.2,86,488.7,85.8,487.1z"/>
<path id="path76" class="st24" d="M306,490.4c0.7,2.8-0.2,5.5-1.5,7.9c-1.1-1.4-2.2-2.9-3.2-4.4C302.8,492.8,304.4,491.6,306,490.4z
	"/>
<path id="path78" class="st25" d="M127.1,502.4c1.6-0.5,3.2-0.9,4.9-1.3c0.3,1.1,0.6,2.2,1,3.4c-0.7,0.4-1.4,0.8-2.1,1.3
	C129.5,504.7,128.3,503.5,127.1,502.4z"/>
<path id="path80" class="st1" d="M52.1,513.2c0.7-2.5,1.6-5,2.6-7.4c0.2,2.5-0.1,5,0.5,7.5c0.7,2.3,2.1,4.3,3.1,6.4
	C56.1,517.5,54.1,515.3,52.1,513.2z"/>
<path id="path82" class="st26" d="M46.4,517.4c3.5-4.2,9.5-0.4,10,4.2C53,520.4,49.7,519,46.4,517.4z"/>
<path id="path84" class="st8" d="M108.9,517.2c1.6-0.6,3.1,0.2,4.6,0.7c-3,1.5-5.9,3.4-8.6,5.4C105.9,521.1,106.9,518.7,108.9,517.2
	z"/>
<path id="path86" class="st27" d="M83.5,519.6c1.2-0.8,2.6,1.2,1.5,2.1C83.8,522.4,82.4,520.4,83.5,519.6z"/>
<path id="path88" class="st1" d="M96.3,523.2c1.4-1.3,2.8-2.6,4.3-3.9c0,2.2-0.1,4.5-0.2,6.7C99,525.1,97.6,524.2,96.3,523.2z"/>
<path id="path90" class="st28" d="M246.5,536.4c0-2,0.2-3.9,0.5-5.9c0.4,2.4,1.2,4.9,0.9,7.3c-0.6,2.8-2.1,5.3-3.4,7.8
	c-2.5-3.3-5.9-6.3-6.2-10.7c1.7,0.3,3.5,0.6,5.2,1c0,1.9-0.1,3.8-0.1,5.7c0.8-0.1,2.2-0.5,3-0.6
	C246.4,539.5,246.4,537.9,246.5,536.4z"/>
<path id="path92" class="st1" d="M12.4,532.2c2.2,1.1,4,2.8,5.1,5C15.7,535.7,13.9,534,12.4,532.2z"/>
<path id="path94" class="st29" d="M243.4,536l3.1,0.4c-0.1,1.5-0.1,3.1-0.2,4.6c-0.8,0.2-2.2,0.5-3,0.6
	C243.3,539.7,243.4,537.8,243.4,536z"/>
<path id="path96" class="st1" d="M8.9,543.8c2.7-1.3,5.5-2.3,8.1-3.6c0.1,1.3,0.3,2.6,0.5,3.9c1.1,0.1,2.2,0.1,3.3,0.1
	c-0.4,0.7-0.8,1.4-1.1,2.2c-1.2-0.6-2.5-1.2-3.7-1.8C13.8,543.3,11.3,543.9,8.9,543.8z"/>
<path id="path98" class="st30" d="M147.6,549.2c2.3-0.5,4.7-0.7,7.1-0.8c-0.4,2.4-1,4.8-1.8,7.1c0.3,0.4,1,1.2,1.4,1.7
	c-0.3,0.5-0.9,1.4-1.2,1.8C150.4,556.3,148.5,552.9,147.6,549.2z"/>
<path id="path100" class="st18" d="M232.2,562.4c2.6,3.6,2.9,8,3.9,12.2c0.4,0.8,0.3,2.4,1.5,2.5c6.1,1.5,12.4,0.6,18.6,0.7
	c152.3,0,304.6,0,457,0c3.7-0.1,7.4-0.9,10.7-2.6c-10.5-1.1-21.1-0.2-31.7-0.5h-291c-6.7-0.1-13.6,1-20-1.3
	c51.7-0.4,103.3,0,155-0.2h190.1v5.2c-164.3-0.1-328.6-0.1-492.8-0.1C234.5,573,234.1,567.5,232.2,562.4z"/>
<path id="path102" class="st31" d="M226.3,576.2c1.7-1.1,2.7-2.9,4-4.5c0.3,1.4,0.7,2.8,1,4.2c-1.8,1.3-3.6,2.7-6,2.5
	c-28.7-0.1-57.4,0-86.1,0c-17.1-0.2-34.3,0.4-51.4-0.4c7.8-0.9,15.6-0.7,23.4-0.6c36-0.3,71.9,0.2,107.9-0.2
	C221.5,577.3,224,576.9,226.3,576.2z"/>
<path id="path3139" class="st3" d="M344.7,0.8c-65.1,3.2-133.9,27.4-188.2,66.2C74.5,125.4,20.9,213.1,6.7,311.8
	C4.2,329,2.4,361.1,3.3,372c0.6,7.7,0.6,7.8,3.4,7.8h2.7L10,356c1.1-45,9.5-85.4,26.4-126.7C85.4,109.4,190.3,28.5,321.2,9.6
	c13.8-1.9,20-2.3,45.5-2.3s31.7,0.4,45.5,2.3C473.5,18.5,527.6,40,576.4,75c71.2,51.1,121.3,128.9,139.9,217.3
	c5.6,27,6.9,39.7,6.9,71.5c0,25.1-0.4,31.7-2.2,44.5c-3.9,26.3-8.7,46.9-16.3,69.5c-2.2,6.4-4,11.9-4,12.2s1.6,0.2,3.6,0
	c4.1-0.5,4.7-1.5,8.8-15c10.1-32.5,15.1-60,16.6-92.5c2.6-53.5-5.4-103-24.5-151.8C653.1,98.1,528.1,8,386.2,0.8
	C366.6-0.2,366-0.2,344.7,0.8L344.7,0.8L344.7,0.8z"/>
<path id="path3141" class="st3" d="M345,61.7c-77.6,5.6-144.3,35.9-198.4,89.9c-48.1,48.1-76.7,105-87.4,173.7
	c-0.6,3.9-0.5,4.2,2.2,4.7c1,0.3,2.1,0.4,3.2,0.2c0.1-0.2,1.2-5.4,2.2-11.5c8.6-49.5,30.5-98.3,62.1-138.2
	c10.4-13.2,33.4-36.2,46.6-46.6c46.4-36.7,102.3-59.3,161.1-65.2c22.8-2.2,53.2-1.1,77.4,3c50.7,8.9,98.5,30.3,138.9,62.2
	c13.2,10.4,36.2,33.4,46.6,46.6c53.7,67.9,76.3,154.7,62.2,238.5c-3.8,22.2-12,50-20.4,69l-2.6,5.8l2.6,0.9c1.1,0.5,2.2,0.8,3.3,1
	c0.5,0,3.1-5.7,5.9-12.8C665.1,446,672,409.5,672,369.2c0-83.3-31.3-158.6-90.2-217.6c-37.1-37.1-78.1-61.8-127.6-77
	C421.1,64.4,377.8,59.3,345,61.7L345,61.7L345,61.7z"/>
<path id="path3143" class="st3" d="M346.8,127.7c-13.9,0.9-27.6,3.2-41,7c-3.8,1.1-10.3,3-14.3,4.1c-9.1,2.4-31.7,12.3-43.7,19.1
	c-52.7,29.8-93.8,80.6-111.1,137.3c-1.9,6-3.4,11.1-3.4,11.2s1.7,0.3,3.9,0.3h3.9l1.6-6.8c5.1-20.2,20.6-50.8,36.9-72.9
	c8.4-11.4,34.9-38.6,42.7-43.8c2.5-1.6,6.1-4.2,8-5.7s8.5-5.7,14.5-9.4c28-17.1,60.2-28.3,94.5-32.9c20.6-2.8,50.5-1.6,72,3
	c13.4,3.1,26.6,6.9,39.5,11.5c17.4,7,40.7,19.5,51.5,27.8c1.9,1.5,5.5,4.1,8,5.7c7.8,5.2,34.3,32.4,42.7,43.8
	c17,22.8,29.7,48.4,37.7,75.7c7.1,25.1,9.6,42,9.6,65c0.2,14.3-1.1,28.5-4.1,42.5c-3.8,19.1-12.2,45.4-16.6,52
	c-0.7,1-1.1,2.2-1.3,3.5c0,0.8-3.4,7.5-7.5,14.9s-7.5,13.7-7.5,14c0.1,0.8,5.1,4.4,5.4,3.9c6.2-8.3,20.7-37.8,25.1-51.5
	c4.2-12.6,9.3-33,11-44.3c2.4-14.7,2.4-55.3,0-70c-3.7-23.2-10.6-45.7-20.4-67c-21.3-45.3-56.1-83-99.6-107.8
	c-10.9-6.2-34.6-16.7-41.8-18.6c-2.8-0.8-10-2.8-15.9-4.4C404.5,128.5,376.3,126,346.8,127.7L346.8,127.7L346.8,127.7z"/>
<path id="path3145" class="st3" d="M355,195.7c-2.3,0.4-2.8,1-2.8,3.2v2.8l15.3,0.6c29.7,1.1,56.4,9.1,82.4,24.8
	c15.6,9.3,29.3,21.3,40.7,35.4c11.6,14.4,20.3,28.9,26.5,44.7c2.5,6.2,2.6,6.3,6.5,4.8l2.6-0.9l-2.1-5.3
	c-9.1-22.9-22.9-43.7-40.6-60.9c-24.9-24.4-54.2-39.8-88-46.3C383.4,196.3,361.1,194.7,355,195.7L355,195.7L355,195.7z"/>
</svg>
