<svg id="svg2" xmlns="http://www.w3.org/2000/svg" viewBox="0 0 726.51 745.22"><defs><style>.cls-1,.cls-2{fill:#fff;}.cls-2{font-size:130px;font-family:Raleway;}.cls-3{letter-spacing:-15px;}.cls-4{letter-spacing:-7px;}</style></defs><title>logo_white</title><path id="path6" class="cls-1" d="M339.4,110.47A362,362,0,0,1,502,83.83C588.41,89.15,672.49,127,733.61,188.39c55,53.84,91.48,126,103.14,202a364.31,364.31,0,0,1-17.69,180c-2,.08-3.93.12-5.88,0.17A365,365,0,0,0,834.3,479c7.47-77.26-11.92-156.57-52.92-222.36-21.28-34.25-48.12-65.18-79.93-90C635,113.61,549.37,85,464.39,88.38a363,363,0,0,0-162,46c-39,21.94-74.16,50.9-102.1,85.9a361.72,361.72,0,0,0-80,240.84c-1.67,0-3.33.08-5,.12A363,363,0,0,1,197.94,215c11.46-14.12,24.42-26.93,37.68-39.34A365.9,365.9,0,0,1,339.4,110.47Z" transform="translate(-114.62 -83)"/><path id="path8" class="cls-1" d="M284.35,210.35A307.6,307.6,0,0,1,757.76,575c-1.75-.52-4.41.23-5.17-1.89A307.33,307.33,0,0,0,778.75,460c2.57-79.56-28-159.37-82.47-217.36-48.12-50.8-114.4-83.74-183.78-92.32-53.84-6.87-109.32,2.2-158.84,24.14-49.27,22-93.17,56.8-123.82,101.4-28.16,39.79-46.21,86.47-53,134.69-1.6-.07-3.19-0.13-4.79-0.17,0.17-7.3,1.83-14.45,3.2-21.59A307.73,307.73,0,0,1,284.35,210.35Z" transform="translate(-114.62 -83)"/><path id="path10" class="cls-1" d="M420.75,217.84c42.73-10.29,88.29-9.06,130.17,4.45A240,240,0,0,1,680.38,580a51.53,51.53,0,0,1-4.22-3C686.22,560.27,695,542.58,701,523.91A242.39,242.39,0,0,0,712.57,463c3.48-66.64-23.21-134-71-180.57C597.67,240.1,537,215.67,476,216.14c-57.76.62-114.87,23.4-157.47,62.36a237.23,237.23,0,0,0-67,111.32c-1.86,0-3.71-.06-5.56-0.11a237.23,237.23,0,0,1,54.51-100.24A240.6,240.6,0,0,1,420.75,217.84Z" transform="translate(-114.62 -83)"/><path id="path12" class="cls-1" d="M469.14,278.39c36.09-2.35,72.77,7.76,103,27.47a172.19,172.19,0,0,1,63.34,73.59c1.91,4.36,4.69,8.72,4.2,13.69-1.41.16-2.81,0.34-4.2,0.52a177.53,177.53,0,0,0-25.65-46.48C577.24,305,523.17,281,470.08,283.26A48.07,48.07,0,0,1,469.14,278.39Z" transform="translate(-114.62 -83)"/><path id="path14" class="cls-1" d="M560.59,377.38c1.15,1.84,2,4.68.15,6.35-2.64,2-6,2.6-8.94,3.84,0.28,5.85,6,8.55,10.11,11.52,4.38,2.84,6,8.17,6.53,13.11-4.9,2.23-9.54-1-13.9-2.9-1.61,4.54-.76,9.52,1.36,13.74a5.79,5.79,0,0,0,5.77,2.8c5.46-.59,9.81-4.91,15.34-5.15,9.77,0.47,17.14,8.8,26.94,9.17,5.29,0.71,12.52.11,15.45,5.61,1,5-1,10.25.62,15.15,1.86,3.36,6,4.24,9,6.47,4.76,3.14,5.76,9.31,9.85,13.09a24.86,24.86,0,0,1,7,17.8c0,3.89-.11,8.69-3.69,11.13-2,1.64-4.62.76-6.92,0.54-1.55-4.61,1.29-10.67-2.66-14.27-3.78-.8-8.36.18-10.35,3.8-2.38,4.31-3.44,9.72-2,14.5,2.62,6.43,11.22,6.55,14.57,12.41,2.83,5.37,2.83,11.73,1.35,17.5-5.73.22-10.41-4.35-16.23-3.4-0.27,2.14-1.48,4.7.35,6.49,4.89,5.17,4.17,13.56.41,19.16a7.13,7.13,0,0,1-8.16,2.65,21,21,0,0,1-4.67-5.4,16.4,16.4,0,0,1-14.81,6.09c-4.55-.71-3.1-6.65-5.61-9.42-3.27-.79-6.7-0.56-9.94-1.46a5.5,5.5,0,0,1-2.75-6.55c2.5-3.54,6.25-6,8.75-9.54-4.29-1.15-9.7-1.12-12.47-5.15-1.34-3.18.16-6.61,0.88-9.76-3.85,2-7.94,4.23-12.41,3.08-0.47,3.68-.73,7.81-3.46,10.62-2.14,2.3-5.25,4.38-8.53,3.55-3.22-2.6-3.33-7.41-6.56-10-4.45,1-8.08,5-12.86,4.61-4.73-1.1-8.47-6.21-8.36-11,1.89-2,4.44-3.18,6.7-4.7,0.16-1,.32-1.91.49-2.86-3.89-.46-8.22-1.49-10.19-5.28-2.47-3.25-.49-7.19.17-10.67-5.94,1.58-10.83,5.43-16.31,8s-12.35-.29-17,4c-1.68,1.39-3.24,2.93-4.91,4.34,1.21-2.74,2-6.08,4.78-7.69,4.52-2.73,10-1.67,15-1.55,0-.77-0.09-1.53-0.12-2.29A12.56,12.56,0,0,0,508,493.9c2.19-2.82,2.14-6.51,2.35-9.89,5.28,2.73,11.12,4.33,16.17,7.5,1.6,0.69,1.66,2.61,1.34,4.09-2.19,3-5.23,5.32-7.51,8.29,1.83,1.17,3.92,2.71,6.21,1.74,2.16-1.27,3.55-3.44,5.06-5.38,0.52,5.58,2.79,11,2.44,16.64-0.08,3.33-3.94,3.31-6.26,4.34,1.79,0.79,3.72,2.12,5.75,1.29,4.81-1.75,8.39-6.64,13.94-6.24,1.41,4.26,1.6,8.76,2,13.2,1.77-1,4.55-1.19,5-3.52,1.19-6.51-3.27-12.39-3.1-18.85,0.24-3.16,2-7,5.66-7,4.25,0.45,7.41,4.24,9,8,1.29,2.72.47,5.75,0.39,8.62,4-1.75,4.87-6.34,6.27-10,3.79,2.61,7.23,6.54,7.23,11.4-0.33,2.85-2.13,5.28-2.71,8.1a42.79,42.79,0,0,0,6.33-3.13c1.9,0.67,3.84,1.25,5.79,1.79a35.25,35.25,0,0,1,.09,11c-1.08,3.87-4.8,5.67-8,7.52,3,0.36,6.13.56,9.22,0.64,2.69,0.06,5.66.14,7.84,2,0.84,3.28-1.31,6.2-2.38,9.15,4.23-2,8.72-5.15,8.57-10.39,4.63,1,9.39,2.28,13,5.62-0.07-2.49,0-5.24-1.7-7.27-3.38-4.28-7.82-7.56-11.51-11.54a9.9,9.9,0,0,1-2.29-5.06c4.83-2.78,9.65.85,14.42,1.82,1-2.26,1.68-4.71,3.2-6.69,2.65-2.34,7.71-2.24,9.52,1.1,1,2.1,1.56,4.39,2.46,6.55-0.09-2.62.91-5.75-1.07-7.91-4.78-6.21-12.41-9.27-19.8-11l1.22-2.06c3.19-4.46,2.86-10.08,3.08-15.27-0.11-1.92,1.28-3.35,2.32-4.79a16.29,16.29,0,0,0,3.92-7.81,75.91,75.91,0,0,0,7.79-1.2c2.66-.31,5.71-1.12,8.15.44,2.53,2.47,3.1,6.17,4.58,9.26,0.62-3,1.89-6.64-.4-9.3-2.88-3.26-7.27-4.49-11.22-5.92-4.27-1.49-10.28-2.85-10.53-8.4a38.92,38.92,0,0,1,10.15,1.58c-0.68-3-1.94-6.5-5.38-7.25-8.31-1.68-16.57,1.43-24.7,2.81-2.69-4.22-6.21-8.24-6.78-13.4,4.59-1.79,8,2.09,11.51,4.3,1.35-3.07,2.38-6.63.26-9.63,4.18-1.85,8.79-1.75,13.26-1.41-2.33-6.55-9.34-9.61-15.84-9.91a53.12,53.12,0,0,1-24.13-7.72c-3.21,1.68-6.49,3.53-10.19,3.76-8.18.64-16-2.24-24.11-3.11,4.26-6.88,5.83-15.31,11.12-21.52,3.4-2.39,5.67,2.25,7.68,4.31-1.22-3.83-3.28-7.69-6.91-9.71-5.54-3-12-3.25-18.15-3.67,1.22-1.61,2.3-3.33,3.68-4.83,2.25,0.48,4.38,1.36,6.61,2-0.83-4.83-4.6-9.21-2.41-14.27,4.45-.15,7.87,2.8,11.06,5.48-0.42-2.46-.53-5.24-2.44-7.09-110.07-87.82-191-40.92-265.43,16.63-40.73,33.65-74.8,80.93-110.66,112.49-2-.46-4.07-0.91-6.13-1.26a25.29,25.29,0,0,0,11.52-8.66c-16.44,5-33.72,7.5-50.89,6.15-4.89-.56-10-1.73-13.9-4.83-2.22-1.63-2.93-4.36-3.89-6.78,12.29,4.85,25.12,8.89,41.13,7.68,18.05-2.37,32.9-10.89,47.81-23.85,67.87-76.55,83.63-87.29,127.88-116.1,89.4-54.77,150.66-45.34,229.15,19.93h0Z" transform="translate(-114.62 -83)"/><path id="path16" class="cls-1" d="M423.21,384.72c4.59,1.92,4.32,7.21,4.9,11.37A101.16,101.16,0,0,0,423.21,384.72Z" transform="translate(-114.62 -83)"/><path id="path18" class="cls-1" d="M418.61,391c1.47-.58,4.13,1,4,2.63C421.07,394.08,418.52,392.58,418.61,391Z" transform="translate(-114.62 -83)"/><path id="path20" class="cls-1" d="M532.21,392.07c1.54-1.25,2.93,1.5,1.48,2.43C532.14,395.74,530.79,393,532.21,392.07Z" transform="translate(-114.62 -83)"/><path id="path22" class="cls-1" d="M438.41,395.68c2.75-1.78,6.35-3.54,9.51-1.62,3.68,2,3.74,6.68,4.08,10.34,1.34-1,2.62-2.19,3.86-3.37,1.45,2.82,3.16,5.48,4.79,8.2-1.68,1.22-3.38,2.41-5,3.73,1.45-.53,2.88-1.14,4.31-1.75,0.78,0.66,1.56,1.33,2.34,2a26.7,26.7,0,0,1,3.52,5c-2.58,3.9-7.57,3.68-11.6,4.75,2,3.54,6.14,4.25,9.78,4.86,2.46,0.46,5.09.48,7.37,1.61,2.32,1.74,3.72,4.4,5.49,6.65a45.6,45.6,0,0,0-4.39,5.32,21.7,21.7,0,0,0,4.19.38c2.19-2.12,3.44-5,5.34-7.35,0.2,7-6.74,11.65-13.06,12.35-1.66.23-3.31,0.38-5,.55l0.36,2.93a28.59,28.59,0,0,0,9.63.35c4.52-1.16,9.2-3.42,13.92-1.83-0.59,3.32-1.6,6.58-1.79,10,2.75-.3,5.48-0.78,8.22-1.19a35.64,35.64,0,0,1,.5,7.07c-1.34,2.7-3.68,4.75-5.31,7.28,4.48,0.5,8.09-2.21,11.78-4.27,2.49-1.23,4.23,1.78,5.63,3.34a57.21,57.21,0,0,1-5.74-2c0.29,2.7.82,5.77-1.11,8-3.63,4.54-9.71,5.68-14.65,8.24,4.8,2.7,10.6,1,15.68,2.75,2,1.38,1.65,4.15,2.17,6.26-1.75,0-3.49.1-5.23,0.19,0.1,1.65.21,3.32,0.33,5,0,0.76.08,1.52,0.12,2.29-5-.12-10.49-1.18-15,1.55-2.79,1.61-3.57,5-4.78,7.69-1.71,3.82-4.27,7.28-5.28,11.41-3.74,17.86-8.08,36.45-7.81,48.58,0.51,18.43,5.84,36.4,13.09,53.24,5,10.69,10.28,21.32,17.28,30.84,6.43,2.24,13.33,1.19,20,1.27H807c10.57,0.27,21.18-.65,31.72.5A25.08,25.08,0,0,1,828,659.42q-228.51-.15-457,0c-6.2-.11-12.52.75-18.61-0.7-1.22-.1-1.12-1.65-1.51-2.48-1-4.17-1.26-8.64-3.85-12.21-2.55-3.21-2.6-8.2-6.6-10.15a80.63,80.63,0,0,0,3.91-8.94c3.82,0.78,8.07,1.88,10.3,5.4,2.63,3.55,1.41,8.17,1,12.2,4.88-3.52,4.74-10,3.55-15.24,1.31-2.53,2.84-5,3.44-7.84,0.36-2.47-.4-4.93-0.85-7.33l-0.25-1.15c3.81-.89,9-1.88,11.59,1.92,1,3.44.39,7.13,1.26,10.63a7.56,7.56,0,0,0,3-7.45c-1.06-4.84-4.09-9.68-8.9-11.45-4.13-1.2-8,1.34-11.38,3.33,0.84-3.65.59-7.58-2.68-9.91,1.11-1.59,2.52-3.12,2.84-5.09a11.71,11.71,0,0,0-5.64-9.74c-6.87-1.46-9.72,8.86-16.55,6.86-6.32-1.66-14-3.74-16.94-10.22-2-6.43-.57-13.27-0.86-19.86,2.11-.92,4.22-1.86,6.36-2.7l-0.35,1.17c-0.42,1.33-.81,2.67-1.18,4a29.23,29.23,0,0,0,8.08-2.38l0.52,1.8c-1.5,1-3,2-4.54,3,0.68,1.22,1.38,2.44,2.08,3.66a16.87,16.87,0,0,0,6-3.94c1.2,2.63,2.6,5.26,3,8.17-0.43,2.33-3.38,2.38-5,3.52,1.72,0.55,3.51,2.17,5.4,1.29,3.46-2.35,4.18-7.06,7.51-9.53a6,6,0,0,1,6-.1c2.46,1.58.86,4.86,1.17,7.22,2-1.18,5.22-1.64,5.78-4.32,0.88-3.35-.14-6.79-0.42-10.14,5.84-1.46,12,1.08,16.67,4.37,0,5.52-3.17,10.15-5.22,15,7.64,0.22,10.35-9.42,18-9.36-1.17.62-2.33,1.26-3.48,1.9,1.52,1.14,3.09,2.23,4.7,3.29,0.81,6-2.2,11.3-4.82,16.45,5.48,1.33,8.45-4,12.43-6.5,2.6-1.91,5.78,1.37,5.41,4.08-0.31,4.09-2.31,7.81-3.24,11.77,1.78-.3,4.18.38,5.34-1.42,2.82-3.88,3-9.14,6.27-12.74,3-1.64,7.45-.52,9.52,2.12,0.45,4.07-.54,8.34,1.31,12.21,1.69-1,4.91-.88,5.21-3.31,1-5.74-3.46-10.23-6.38-14.61,0.25-3.13,2-5.82,2.78-8.81,0.34-2.62-.34-5.24-0.67-7.82,2.21-1.2,4.42-2.37,6.62-3.6l-3,.21c3.94-.59,8.33-1.07,11.91,1,2.59,1.67,3.17,5.14,2.3,7.94-0.35,1.42-.65,2.86-0.94,4.31C440,576,442,575,443.22,573.2s0.48-4.26.14-6.31a33.11,33.11,0,0,0-7.43-11c3.48-2.25,6.16-5.75,10.08-7.27,4,0.15,4.32,5.38,6.53,7.9,0.39-2.82.26-6-2.34-7.74-5-3.68-12-6.26-17.92-3.38-5.07,2.31-9.11-3.9-14.17-3.58-3.25,1.47-5.41,4.52-8,6.83-2.33-.65-4.64-1.33-7-2,1.29-2.38,2.94-4.86,2.49-7.69-0.07-2.46-1.88-4.24-3.33-6,3.79-2.51,8.2-4.84,12.9-3.63a90.88,90.88,0,0,1,7.56,6.31c1.29-4,.27-9.56-4.22-10.9a71,71,0,0,1-14.71-4.48c-6.31-2.44-12.26,2.28-17.81,4.68-4.07,1.65-8.47,5.14-13,3.09-3.69-1.26-7.14-4.8-6.24-9,0.94-3.34,4.62-4.54,7.39-6a48.53,48.53,0,0,0,2.65,8.91c1.64-1.45,4.11-2.68,4.08-5.2,0.41-4.23-2.26-7.89-5.16-10.66-0.14-2.2-.27-4.4-0.37-6.59,3.45,0.83,7.06,1.91,9.35,4.84,0.08,0.61.23,1.83,0.31,2.44a24.93,24.93,0,0,0,3-4c-0.9-4.74-5.8-7.23-9.72-9.21-5.5-1.69-10.63,2.89-16.21,2.15-2.52.39-2.87-2.58-3.69-4.24,2.48-.18,5-0.31,7.44-0.48-1.73-3.27-5-5.91-8.85-5.58-4.54-.34-7.9,2.93-11.24,5.43-4.09.81-8.32-.76-11.75-2.94-6.79-4.59-10-12.44-13.55-19.51-3-6.5-6.18-13.89-4.08-21.12,1.49-5.11,9.25-8,12.88-3.55,1.85,3.76-.91,7.51-2.07,11a25.59,25.59,0,0,0,5.1-.35c3.91-3.52,3.84-9.25,3.32-14.07,2.15-1,4.09-2.52,6.43-3,2.84,0,5.4,1.46,7.89,2.68,0.34,5.16-1.72,10.11-1.36,15.28,2.13-.55,5.14-0.3,5.87-2.92,3.31-6.15-2.14-12.75-.09-18.9,3.77-1.8,8-1,12.06-1.25,1.45-.07,2.9-0.15,4.36-0.15,3.83,4.19,4.94,10,6,15.36,1-1.34,2.86-2.51,2.62-4.43-0.77-7.44-5.38-13.74-7.23-20.85a24.48,24.48,0,0,1,5.9-2.29c3.64,3.37,5.88,7.85,9,11.69,0.26-2.46,1.32-5.18,0-7.52-1.71-2.92-4.73-4.74-7.67-6.23-3.16-1.72-7.6-2.4-8.7-6.39-1.89-3.06.92-6.42,4-6.79,5.09-.94,11.2-1.25,15.44,2.21,3.65,3,2.55,8.12,2.13,12.23l4.32-.85a19.28,19.28,0,0,0-.73-8.86c2.54,0.34,5.1,0,7.65.17,5.48,5.36,5,14,2.78,20.74,4.64-1.36,6.82-5.82,8.82-9.78,4.83,0.55,10.38,1.87,13.07,6.34,2.08,3.18.23,7,.27,10.48,4.64-1.89,5.12-7.51,4-11.73-3.12-7.11-9.27-12.39-12.13-19.65,2.44-2.11,5-4.15,7.17-6.49a43.53,43.53,0,0,0,8.12,4,67.23,67.23,0,0,0,1.85,9.33c5.68-4.17,2.19-11.57,1-17.07h0Z" transform="translate(-114.62 -83)"/><path id="path24" class="cls-1" d="M415.72,398c2.94-1.06,6-.42,9-0.2-0.26.83-.52,1.67-0.76,2.51A27.91,27.91,0,0,0,415.72,398Z" transform="translate(-114.62 -83)"/><path id="path26" class="cls-1" d="M460,411.21c4-2.65,8.23-6.13,13.36-4.88,0.68,2.47,1.3,5,1.84,7.47-1.77-2.08-3.33-4.82-6.2-5.44-3.15-.28-5,2.66-6.66,4.87C461.54,412.54,460.76,411.87,460,411.21Z" transform="translate(-114.62 -83)"/><path id="path28" class="cls-1" d="M353.39,412.89c1.67,0.14,1.47,4-.08,4.19A3.35,3.35,0,0,1,353.39,412.89Z" transform="translate(-114.62 -83)"/><path id="path30" class="cls-1" d="M379.3,417.84c2.94,1.49,6,3.31,7.67,6.23,1.33,2.34.27,5.06,0,7.52-3.07-3.84-5.31-8.32-9-11.69Z" transform="translate(-114.62 -83)"/><path id="path32" class="cls-1" d="M353.22,421.73c0.49-1.06,1-2.13,1.49-3.18a39.41,39.41,0,0,1,16.06,13.56c-1.46,0-2.91.08-4.36,0.15-0.65-1.81-1-3.9-2.72-5.06-4.35-3.2-9.85-4.05-14.89-5.67C350.27,421.57,351.75,421.64,353.22,421.73Z" transform="translate(-114.62 -83)"/><path id="path34" class="cls-1" d="M341,422.43a43.54,43.54,0,0,1,17.32,5.24c-2.49.9-5.08,2.72-7.82,1.92C346.89,427.84,344,425,341,422.43Z" transform="translate(-114.62 -83)"/><path id="path36" class="cls-1" d="M464,427.83c2.68-.7,5.54-2.72,8.29-1.18,3.21,1.93,4.66,5.82,4.57,9.44-1.77-2.25-3.17-4.91-5.49-6.65C469.11,428.31,466.48,428.29,464,427.83Z" transform="translate(-114.62 -83)"/><path id="path38" class="cls-1" d="M464,447.34c1.65-.17,3.3-0.32,5-0.55a40,40,0,0,0,5,3.83,28.59,28.59,0,0,1-9.63-.35Z" transform="translate(-114.62 -83)"/><path id="path40" class="cls-1" d="M494.34,457.57a24.12,24.12,0,0,1,2.17,9.84l4.8,0.24c-3.69,2.06-7.3,4.77-11.78,4.27,1.63-2.53,4-4.58,5.31-7.28A35.64,35.64,0,0,0,494.34,457.57Z" transform="translate(-114.62 -83)"/><path id="path42" class="cls-1" d="M630.24,473.7c4,1.43,8.34,2.66,11.22,5.92,2.29,2.66,1,6.28.4,9.3-1.48-3.09-2-6.79-4.58-9.26-2.44-1.56-5.49-.75-8.15-0.44,1.45-.68,2.93-1.32,4.42-1.94C632.44,476.09,631.33,474.89,630.24,473.7Z" transform="translate(-114.62 -83)"/><path id="path44" class="cls-1" d="M606.39,482.87c3.47,0.74,7.3,1.64,9.22,5-2.22-.45-4.43-0.88-6.65-1.31l-0.94-.18C607.45,485.2,606.89,484,606.39,482.87Z" transform="translate(-114.62 -83)"/><path id="path46" class="cls-1" d="M609,486.53c2.22,0.43,4.43.86,6.65,1.31l1.81,0.39c-1,1.44-2.43,2.87-2.32,4.79-0.22,5.19.11,10.81-3.08,15.27-1.53-4.86,1.34-9.39,1.74-14.14C613,491.16,610.77,488.9,609,486.53Z" transform="translate(-114.62 -83)"/><path id="path48" class="cls-1" d="M378.31,493.65c3.92,2,8.82,4.47,9.72,9.21a24.93,24.93,0,0,1-3,4c-0.08-.61-0.23-1.83-0.31-2.44-0.08-1.12-.15-2.24-0.2-3.35-2.32-1.26-4.62-2.57-7-3.6C377.64,496.49,378.08,494.6,378.31,493.65Z" transform="translate(-114.62 -83)"/><path id="path50" class="cls-1" d="M373.77,497.76a6,6,0,0,1,3.65-.32c2.43,1,4.73,2.34,7,3.6,0,1.11.12,2.23,0.2,3.35-2.29-2.93-5.9-4-9.35-4.84,0.1,2.19.23,4.39,0.37,6.59l-3.33-1.5C372.68,502.33,372.64,499.87,373.77,497.76Z" transform="translate(-114.62 -83)"/><path id="path52" class="cls-1" d="M171.78,503.84c2.06,0.35,4.09.8,6.13,1.26-18.12,14.82-39.05,28.6-63.05,30.31,0.59-2.8,1.32-6,4.1-7.44,7.71-4.51,17.46-2,25.26-6.39-9.08-.06-18.12,1.23-27.22.91-2-5.09-1.84-10.64-1.92-16a35,35,0,0,0,12.88,3C155,511,156.34,508.68,171.78,503.84Z" transform="translate(-114.62 -83)"/><path id="path54" class="cls-1" d="M403.79,520.28a71,71,0,0,0,14.71,4.48c4.49,1.34,5.51,6.91,4.22,10.9-1.59-3.59-2.19-8.45-6.32-10.08-3.8-1.32-8-.63-11.85,0-2.48.55-4.89,1.35-7.33,2.06,0.21-1.62.38-3.24,0.75-4.83,2.32-1.14,4.75.89,7.07,1.29C404.63,522.82,404.22,521.54,403.79,520.28Z" transform="translate(-114.62 -83)"/><path id="path56" class="cls-1" d="M404.55,525.6c3.88-.65,8.05-1.34,11.85,0,4.13,1.63,4.73,6.49,6.32,10.08a90.88,90.88,0,0,0-7.56-6.31l1.65-2A31.93,31.93,0,0,0,404.55,525.6Z" transform="translate(-114.62 -83)"/><path id="path58" class="cls-1" d="M581.37,543.4c3.18-1.85,6.9-3.65,8-7.52a49,49,0,0,0,1.24,8.16C587.5,544,584.42,543.76,581.37,543.4Z" transform="translate(-114.62 -83)"/><path id="path60" class="cls-1" d="M210.81,545.08c1.72,0.39,3.44.78,5.17,1.14l-3.41,1.48c0.22,1.65.43,3.3,0.67,5-1.14-.94-2.26-1.89-3.37-2.83C210.19,548.24,210.51,546.66,210.81,545.08Z" transform="translate(-114.62 -83)"/><path id="path62" class="cls-1" d="M197.48,562.14c4.61-3.58,9.26-7.29,12.39-12.31,1.11,0.94,2.23,1.89,3.37,2.83a13.35,13.35,0,0,0,5.68,2.86c0.85,4.58,5.51,6.51,9.78,6.06,0.06,2,.13,4.08.15,6.14-2.49.28-5,.5-7.47,0.76,1.08,2.35,2.37,5.68,5.6,5.24,5.2-1.86,8.13-7.3,13.27-9.23,3.29-1.1,6.11,2.55,5,5.61-1.85.36-3.73,0.46-5.59,0.72,1.84,1,3.79,2.67,6,1.87,2-.78,3.47-2.41,5.16-3.66,1,4.64,1.57,11.83-4.07,13.64-1.62.43-3.25,0.83-4.86,1.29,1.2,1.14,2.4,2.3,3.69,3.34,3.2,0.71,6.76-.35,9.71,1.36,2.09,2.88,1.4,7.12-1,9.58a28.54,28.54,0,0,1-5,1.47l0.44,2.4c6.28-.71,10-6.41,14.59-10.12a60.25,60.25,0,0,1-10.48,18.84c-1.77,2-3.7,4-6.24,4.88s-5.39-.15-8.06-0.36c1.39,1.44,2.6,3.22,4.51,4,2.55,0.61,5.06-.4,7.49-1.07-0.64,3.89,1.29,7.53,1.25,11.37-3.59,3.33-8.79,3.55-13.41,4,1.53,2.09,3.23,4.47,6,4.83,4.62,0.74,9.32.17,14,0,0.63,3.16,1.53,7.12-1.29,9.54-2.84,3-7.19,2.36-10.89,2.34,0.16,1,.33,2,0.5,3,3.95,0.88,9.13,3.15,12.36-.42,3.82-3.29,5.49-8.12,7.84-12.41,0.31-.45.93-1.36,1.25-1.81,2.08-2.54,4.36-5.27,4.33-8.77,0.41-2.87-2-4.92-3.48-7,5.06-1.32,11.33-2.46,15.58,1.43,3.14,3.65.64,8.59,0.55,12.81,5.06-3.5,9.62-10.43,6.29-16.53,4.73-3.26,9.72-6.32,13.61-10.61,2.07-2.1,2.1-5.23,2.93-7.88,1.7,3.67.28,7.63-1.73,10.85q1.62,2.8,3,5.73a18.8,18.8,0,0,0-2.94,8.66c4.92-.21,6.73-5,8.69-8.67-0.2,3.58,0,7.2-.52,10.77-0.31,3-2.65,5.11-4.17,7.53,3.26,0.07,5.88-1.94,8.82-3,3,0,4,3.8,4.5,6.21,0.84,5.37-2.65,9.93-6.73,13,1.71,0.5,3.54,2.16,5.34,1,4.19-3,5.79-8.25,9.52-11.67a5.12,5.12,0,0,1,6-.69c3.72,2.66,4.69,7.39,6.32,11.39-1.23,1.54-2.26,3.38-4,4.45-2.26,1-4.78.93-7.18,1.08-36,.43-71.93,0-107.89.22-7.8-.11-15.62-0.31-23.38.6-5.82.31-11.69,0.85-17.5,0.15-2.87-.36-4.84-2.7-7-4.32,0.57-3.4,1-7.22,3.79-9.62,1.48-1.69,3.84-1.52,5.87-1.73,0.85,2.12,1.51,4.3,2.19,6.49,1.17-1.86,2.65-3.93,1.75-6.24-1.9-5.4-8.22-8.76-13.73-6.73-1.17-3.28-2.22-7.63-6.21-8.4-8-1.24-14.37,5.06-21,8.52-6.24,3.53-13.62.16-18.92-3.57-0.54-2.63-.6-5.33-1-8l3.7,1.78,1.15-2.2c2.39-5.44.26-11.56-.07-17.23,2.65-.69,6.38-2.41,8.34.48,2.83,4.3,1.73,10.11,4.94,14.26,4.73-4.08,2.84-10.82,3.73-16.28q3.17,0.2,6.31.61c0.79-2.87,1.59-5.74,2.27-8.63,3.29,1.51,6.61,3,10,4.18l0.62,0.23c-0.11,1.75-.15,3.51-0.11,5.28a35.52,35.52,0,0,0,2.92-6.25c1.93,2.66,4.18,5.15,5.48,8.21,1.09,2.92,1,6.11,1.53,9.16,3.48-4,2.18-9.39,1.14-14,2.28-1,4.62-2.34,7.23-2.11a5.16,5.16,0,0,1,5,4.93c-0.83,1.22-1.89,2.26-2.84,3.4l1,2.53,2.21,0.1c0.75-1.88,1.46-3.79,2.24-5.65,0.42,1.22.82,2.44,1.2,3.69,2-.79,4-1.49,6-2.12,2,4.32,4,9,3.38,13.87-0.25,2.8-3.34,3.81-5.15,5.47,0.67,1.06,1.38,2.1,2.14,3.12,3.66-1.23,5.85-5,7.56-8.19-1.6-6.56-3.24-13.32-1.78-20.11,1.35,1,2.7,1.94,4.09,2.85,1.95,1.24,3.14-1.77,4.56-2.67a59.14,59.14,0,0,1,8.63-5.45l0.78-.42a47,47,0,0,1,1.64,10.28l2.38,1.52c1.81-2.67,3.45-5.9,2.43-9.19a16.4,16.4,0,0,0-11.67-10.82c-3.9-1.14-8-1-12-1.87a30.52,30.52,0,0,1-1.72-3.72l2.45,0.27c-1.21-3.91-4.34-8.21-2.26-12.35l1.25-2.16c-1.11-2.7-2.53-5.37-2.5-8.37A42.6,42.6,0,0,1,197.48,562.14Z" transform="translate(-114.62 -83)"/><path id="path64" class="cls-1" d="M356.65,556c1.42-3,4.43-4.19,7.63-4A31.46,31.46,0,0,1,356.65,556Z" transform="translate(-114.62 -83)"/><path id="path66" class="cls-1" d="M323.29,558.44c0.94-1.84,3.89-1.47,5.67-2.2,0.31,1,.92,2.88,1.23,3.85a29.23,29.23,0,0,1-8.08,2.38C322.48,561.11,322.87,559.77,323.29,558.44Z" transform="translate(-114.62 -83)"/><path id="path68" class="cls-1" d="M417,566.78a34.19,34.19,0,0,1,8-2.78l3.05-.21c-2.2,1.23-4.41,2.4-6.62,3.6,0.33,2.58,1,5.2.67,7.82-0.76,3-2.53,5.68-2.78,8.81-2.8-2.94-6-5.43-8.87-8.31,1.14-1.19,2.29-2.38,3.45-3.55,0.69,1.13,1.4,2.26,2.11,3.39,1,1.51,2.08,2.94,3.18,4.38,1.33-2.41,2.2-5.12,1.54-7.88A55.84,55.84,0,0,0,417,566.78Z" transform="translate(-114.62 -83)"/><path id="path70" class="cls-1" d="M443.36,566.89c0.34,2,1,4.37-.14,6.31s-3.21,2.84-4.93,4.1c0.29-1.45.59-2.89,0.94-4.31A29.9,29.9,0,0,1,443.36,566.89Z" transform="translate(-114.62 -83)"/><path id="path72" class="cls-1" d="M407.58,568.31c1.87,0.08,3.42,1.21,5,2.13-2.28.91-4.57,1.77-6.92,2.47A31.53,31.53,0,0,1,407.58,568.31Z" transform="translate(-114.62 -83)"/><path id="path74" class="cls-1" d="M200.59,568.68c4.07-.72,7.07,2,9.8,4.54-2.08,4.14,1.05,8.44,2.26,12.35l-2.45-.27c-0.8-2.78-.35-6.64-3.23-8.26-1.77-1.21-3.74-2.16-5.26-3.69A24.25,24.25,0,0,1,200.59,568.68Z" transform="translate(-114.62 -83)"/><path id="path76" class="cls-1" d="M420.75,572c0.66,2.76-.21,5.47-1.54,7.88-1.1-1.44-2.2-2.87-3.18-4.38C417.61,574.38,419.17,573.21,420.75,572Z" transform="translate(-114.62 -83)"/><path id="path78" class="cls-1" d="M241.89,584c1.61-.46,3.24-0.86,4.86-1.29q0.46,1.67,1,3.36l-2.13,1.27C244.29,586.26,243.09,585.1,241.89,584Z" transform="translate(-114.62 -83)"/><path id="path80" class="cls-1" d="M166.86,594.75a65.88,65.88,0,0,1,2.57-7.39c0.23,2.48-.09,5,0.5,7.47a53,53,0,0,0,3.13,6.43C170.94,599.14,168.94,596.91,166.86,594.75Z" transform="translate(-114.62 -83)"/><path id="path82" class="cls-1" d="M161.17,599c3.47-4.21,9.49-.44,10,4.18C167.78,602,164.46,600.56,161.17,599Z" transform="translate(-114.62 -83)"/><path id="path84" class="cls-1" d="M223.74,598.8c1.56-.65,3.13.24,4.59,0.72A59.14,59.14,0,0,0,219.7,605C220.73,602.74,221.71,600.3,223.74,598.8Z" transform="translate(-114.62 -83)"/><path id="path86" class="cls-1" d="M198.29,601.19c1.18-.78,2.56,1.2,1.5,2.09S197.24,602,198.29,601.19Z" transform="translate(-114.62 -83)"/><path id="path88" class="cls-1" d="M211.05,604.79c1.38-1.35,2.81-2.64,4.28-3.89,0,2.24-.14,4.49-0.19,6.74C213.75,606.73,212.4,605.75,211.05,604.79Z" transform="translate(-114.62 -83)"/><path id="path90" class="cls-1" d="M361.28,618a41.57,41.57,0,0,1,.51-5.9c0.45,2.4,1.21,4.86.85,7.33-0.6,2.82-2.13,5.31-3.44,7.84-2.5-3.28-5.85-6.28-6.19-10.66,1.74,0.26,3.47.56,5.19,1,0,1.88-.05,3.78-0.09,5.67l3-.62Z" transform="translate(-114.62 -83)"/><path id="path92" class="cls-1" d="M127.18,613.83a11.12,11.12,0,0,1,5.11,5A43.81,43.81,0,0,1,127.18,613.83Z" transform="translate(-114.62 -83)"/><path id="path94" class="cls-1" d="M358.2,617.56l3.08,0.44-0.18,4.61-3,.62C358.15,621.34,358.18,619.44,358.2,617.56Z" transform="translate(-114.62 -83)"/><path id="path96" class="cls-1" d="M123.7,625.42c2.67-1.3,5.47-2.28,8.13-3.58,0.15,1.29.3,2.57,0.47,3.88,1.11,0.05,2.23.09,3.35,0.12L134.5,628l-3.7-1.78C128.65,624.92,126.07,625.51,123.7,625.42Z" transform="translate(-114.62 -83)"/><path id="path98" class="cls-1" d="M262.42,630.8a44.24,44.24,0,0,1,7.08-.8,39,39,0,0,1-1.8,7.11c0.35,0.41,1,1.24,1.41,1.65-0.32.45-.94,1.36-1.25,1.81A20.12,20.12,0,0,1,262.42,630.8Z" transform="translate(-114.62 -83)"/><path id="path100" class="cls-1" d="M347,644c2.59,3.57,2.9,8,3.85,12.21,0.39,0.83.29,2.38,1.51,2.48,6.09,1.45,12.41.59,18.61,0.7q228.5,0,457,0a25.08,25.08,0,0,0,10.71-2.57c-10.54-1.15-21.15-.23-31.72-0.5H516c-6.67-.08-13.57,1-20-1.27,51.66-.38,103.33,0,155-0.16q95.05,0,190.13,0c0,1.73,0,3.46,0,5.2-164.26-.13-328.52.13-492.77-0.11A30.41,30.41,0,0,0,347,644Z" transform="translate(-114.62 -83)"/><path id="path102" class="cls-1" d="M341.07,657.77c1.71-1.07,2.74-2.91,4-4.45,0.32,1.41.67,2.83,1,4.25-1.75,1.34-3.64,2.74-6,2.52-28.69-.08-57.39,0-86.09,0-17.13-.21-34.28.44-51.38-0.38,7.76-.91,15.58-0.71,23.38-0.6,36-.27,71.93.21,107.89-0.22C336.29,658.7,338.81,658.73,341.07,657.77Z" transform="translate(-114.62 -83)"/><text class="cls-2" transform="translate(14.44 716.23)">PO<tspan class="cls-3" x="178.49" y="0">L</tspan><tspan x="238.55" y="0">Y</tspan><tspan class="cls-4" x="323.18" y="0">WA</tspan><tspan x="531.18" y="0">VE</tspan></text></svg>