<svg id="svg2" xmlns="http://www.w3.org/2000/svg" viewBox="0 0 730.16 741.64"><defs><style>.cls-1,.cls-2{fill:#fff;}.cls-2{isolation:isolate;font-size:130px;font-family:Raleway;}.cls-3{letter-spacing:-15px;}.cls-4{letter-spacing:-7px;}</style></defs><title>logo_white</title><path id="path14" class="cls-1" d="M560.6,377.4c1.2,1.8,2,4.7.2,6.4-2.6,2-6,2.6-8.9,3.8,0.3,5.9,6,8.5,10.1,11.5,4.4,2.8,6,8.2,6.5,13.1-4.9,2.2-9.5-1-13.9-2.9A17.3,17.3,0,0,0,556,423a5.82,5.82,0,0,0,5.8,2.8c5.5-.6,9.8-4.9,15.3-5.1,9.8,0.5,17.1,8.8,26.9,9.2,5.3,0.7,12.5.1,15.5,5.6,1,5-1,10.2.6,15.1,1.9,3.4,6,4.2,9,6.5,4.8,3.1,5.8,9.3,9.8,13.1a24.59,24.59,0,0,1,7,17.8c0,3.9-.1,8.7-3.7,11.1-2,1.6-4.6.8-6.9,0.5-1.5-4.6,1.3-10.7-2.7-14.3-3.8-.8-8.4.2-10.3,3.8a19.35,19.35,0,0,0-2,14.5c2.6,6.4,11.2,6.5,14.6,12.4,2.8,5.4,2.8,11.7,1.3,17.5-5.7.2-10.4-4.3-16.2-3.4-0.3,2.1-1.5,4.7.3,6.5,4.9,5.2,4.2,13.6.4,19.2a7.21,7.21,0,0,1-8.2,2.7c-2-1.4-3.3-3.5-4.7-5.4a16.52,16.52,0,0,1-14.8,6.1c-4.5-.7-3.1-6.7-5.6-9.4-3.3-.8-6.7-0.6-9.9-1.5a5.53,5.53,0,0,1-2.8-6.5c2.5-3.5,6.2-6,8.8-9.5-4.3-1.2-9.7-1.1-12.5-5.2-1.3-3.2.2-6.6,0.9-9.8-3.8,2-7.9,4.2-12.4,3.1-0.5,3.7-.7,7.8-3.5,10.6-2.1,2.3-5.2,4.4-8.5,3.5-3.2-2.6-3.3-7.4-6.6-10-4.5,1-8.1,5-12.9,4.6-4.7-1.1-8.5-6.2-8.4-11,1.9-2,4.4-3.2,6.7-4.7,0.2-1,.3-1.9.5-2.9-3.9-.5-8.2-1.5-10.2-5.3-2.5-3.2-.5-7.2.2-10.7-5.9,1.6-10.8,5.4-16.3,8s-12.4-.3-17,4c-1.7,1.4-3.2,2.9-4.9,4.3,1.2-2.7,2-6.1,4.8-7.7,4.5-2.7,10-1.7,15-1.5,0-.8-0.1-1.5-0.1-2.3a12.59,12.59,0,0,0,9.6-5.6c2.2-2.8,2.1-6.5,2.4-9.9,5.3,2.7,11.1,4.3,16.2,7.5,1.6,0.7,1.7,2.6,1.3,4.1-2.2,3-5.2,5.3-7.5,8.3,1.8,1.2,3.9,2.7,6.2,1.7,2.2-1.3,3.5-3.4,5.1-5.4,0.5,5.6,2.8,11,2.4,16.6-0.1,3.3-3.9,3.3-6.3,4.3,1.8,0.8,3.7,2.1,5.8,1.3,4.8-1.8,8.4-6.6,13.9-6.2,1.4,4.3,1.6,8.8,2,13.2,1.8-1,4.5-1.2,5-3.5,1.2-6.5-3.3-12.4-3.1-18.9,0.2-3.2,2-7,5.7-7,4.2,0.5,7.4,4.2,9,8,1.3,2.7.5,5.7,0.4,8.6,4-1.8,4.9-6.3,6.3-10,3.8,2.6,7.2,6.5,7.2,11.4-0.3,2.8-2.1,5.3-2.7,8.1a46,46,0,0,0,6.3-3.1c1.9,0.7,3.8,1.2,5.8,1.8a33.86,33.86,0,0,1,.1,11c-1.1,3.9-4.8,5.7-8,7.5a69.91,69.91,0,0,0,9.2.6c2.7,0.1,5.7.1,7.8,2,0.8,3.3-1.3,6.2-2.4,9.2,4.2-2,8.7-5.2,8.6-10.4,4.6,1,9.4,2.3,13,5.6-0.1-2.5,0-5.2-1.7-7.3-3.4-4.3-7.8-7.6-11.5-11.5a9.55,9.55,0,0,1-2.3-5.1c4.8-2.8,9.7.8,14.4,1.8,1-2.3,1.7-4.7,3.2-6.7,2.7-2.3,7.7-2.2,9.5,1.1,1,2.1,1.6,4.4,2.5,6.5-0.1-2.6.9-5.8-1.1-7.9-4.8-6.2-12.4-9.3-19.8-11,0.3-.5.9-1.5,1.2-2.1,3.2-4.5,2.9-10.1,3.1-15.3-0.1-1.9,1.3-3.4,2.3-4.8a15.63,15.63,0,0,0,3.9-7.8,70.07,70.07,0,0,0,7.8-1.2c2.7-.3,5.7-1.1,8.2.4,2.5,2.5,3.1,6.2,4.6,9.3,0.6-3,1.9-6.6-.4-9.3-2.9-3.3-7.3-4.5-11.2-5.9-4.3-1.5-10.3-2.9-10.5-8.4a35.6,35.6,0,0,1,10.2,1.6c-0.7-3-1.9-6.5-5.4-7.2-8.3-1.7-16.6,1.4-24.7,2.8-2.7-4.2-6.2-8.2-6.8-13.4,4.6-1.8,8,2.1,11.5,4.3,1.3-3.1,2.4-6.6.3-9.6,4.2-1.9,8.8-1.8,13.3-1.4-2.3-6.5-9.3-9.6-15.8-9.9-8.6-.4-16.8-3.4-24.1-7.7-3.2,1.7-6.5,3.5-10.2,3.8-8.2.6-16-2.2-24.1-3.1,4.3-6.9,5.8-15.3,11.1-21.5,3.4-2.4,5.7,2.2,7.7,4.3-1.2-3.8-3.3-7.7-6.9-9.7-5.5-3-12-3.2-18.2-3.7a55.83,55.83,0,0,1,3.7-4.8c2.2,0.5,4.4,1.4,6.6,2-0.8-4.8-4.6-9.2-2.4-14.3,4.5-.1,7.9,2.8,11.1,5.5-0.4-2.5-.5-5.2-2.4-7.1-110.1-87.8-191-40.9-265.4,16.6-40.7,33.6-74.8,80.9-110.7,112.5-2-.5-4.1-0.9-6.1-1.3a24.77,24.77,0,0,0,11.5-8.7c-16.4,5-33.7,7.5-50.9,6.1-4.9-.6-10-1.7-13.9-4.8-2.2-1.6-2.9-4.4-3.9-6.8,12.3,4.8,25.1,8.9,41.1,7.7,18.1-2.4,32.9-10.9,47.8-23.9,67.9-76.6,83.6-87.3,127.9-116.1,89.1-54.4,150.4-45,228.9,20.3h0Z" transform="translate(-114.8 -81.59)"/><path id="path16" class="cls-1" d="M423.2,384.7c4.6,1.9,4.3,7.2,4.9,11.4A95.44,95.44,0,0,0,423.2,384.7Z" transform="translate(-114.8 -81.59)"/><path id="path18" class="cls-1" d="M418.6,391c1.5-.6,4.1,1,4,2.6C421.1,394.1,418.5,392.6,418.6,391Z" transform="translate(-114.8 -81.59)"/><path id="path20" class="cls-1" d="M532.2,392.1c1.5-1.2,2.9,1.5,1.5,2.4C532.1,395.7,530.8,393,532.2,392.1Z" transform="translate(-114.8 -81.59)"/><path id="path22" class="cls-1" d="M438.4,395.7c2.8-1.8,6.4-3.5,9.5-1.6,3.7,2,3.7,6.7,4.1,10.3,1.3-1,2.6-2.2,3.9-3.4,1.5,2.8,3.2,5.5,4.8,8.2-1.7,1.2-3.4,2.4-5,3.7a32.51,32.51,0,0,0,4.3-1.8c0.8,0.7,1.6,1.3,2.3,2,1.5,1.4,2.4,3.3,3.5,5-2.6,3.9-7.6,3.7-11.6,4.8,2,3.5,6.1,4.2,9.8,4.9,2.5,0.5,5.1.5,7.4,1.6,2.3,1.7,3.7,4.4,5.5,6.6a56.21,56.21,0,0,0-4.4,5.3,19.92,19.92,0,0,0,4.2.4c2.2-2.1,3.4-5,5.3-7.4,0.2,7-6.7,11.6-13.1,12.4-1.7.2-3.3,0.4-5,.5,0.1,0.7.3,2.2,0.4,2.9a31,31,0,0,0,9.6.4c4.5-1.2,9.2-3.4,13.9-1.8-0.6,3.3-1.6,6.6-1.8,10,2.8-.3,5.5-0.8,8.2-1.2a41.66,41.66,0,0,1,.5,7.1c-1.3,2.7-3.7,4.8-5.3,7.3,4.5,0.5,8.1-2.2,11.8-4.3,2.5-1.2,4.2,1.8,5.6,3.3a34.89,34.89,0,0,1-5.7-2c0.3,2.7.8,5.8-1.1,8-3.6,4.5-9.7,5.7-14.6,8.2,4.8,2.7,10.6,1,15.7,2.8,2,1.4,1.6,4.1,2.2,6.3-1.8,0-3.5.1-5.2,0.2,0.1,1.6.2,3.3,0.3,5,0,0.8.1,1.5,0.1,2.3-5-.1-10.5-1.2-15,1.5-2.8,1.6-3.6,5-4.8,7.7-1.7,3.8-4.3,7.3-5.3,11.4-3.7,17.9-8.1,36.5-7.8,48.6,0.5,18.4,5.8,36.4,13.1,53.2,5,10.7,10.3,21.3,17.3,30.8,6.4,2.2,13.3,1.2,20,1.3H807c10.6,0.3,21.2-.7,31.7.5a24.82,24.82,0,0,1-10.7,2.6q-228.45-.15-457,0c-6.2-.1-12.5.8-18.6-0.7-1.2-.1-1.1-1.7-1.5-2.5-1-4.2-1.3-8.6-3.9-12.2-2.5-3.2-2.6-8.2-6.6-10.2,1.5-2.9,2.7-5.9,3.9-8.9,3.8,0.8,8.1,1.9,10.3,5.4,2.6,3.5,1.4,8.2,1,12.2,4.9-3.5,4.7-10,3.5-15.2,1.3-2.5,2.8-5,3.4-7.8,0.4-2.5-.4-4.9-0.9-7.3l-0.2-1.2c3.8-.9,9-1.9,11.6,1.9,1,3.4.4,7.1,1.3,10.6a7.52,7.52,0,0,0,3-7.5c-1.1-4.8-4.1-9.7-8.9-11.5-4.1-1.2-8,1.3-11.4,3.3,0.8-3.7.6-7.6-2.7-9.9,1.1-1.6,2.5-3.1,2.8-5.1a11.56,11.56,0,0,0-5.6-9.7c-6.9-1.5-9.7,8.9-16.5,6.9-6.3-1.7-14-3.7-16.9-10.2-2-6.4-.6-13.3-0.9-19.9,2.1-.9,4.2-1.9,6.4-2.7l-0.4,1.2c-0.4,1.3-.8,2.7-1.2,4a29,29,0,0,0,8.1-2.4c0.1,0.5.4,1.3,0.5,1.8l-4.5,3c0.7,1.2,1.4,2.4,2.1,3.7a18.27,18.27,0,0,0,6-3.9c1.2,2.6,2.6,5.3,3,8.2-0.4,2.3-3.4,2.4-5,3.5,1.7,0.5,3.5,2.2,5.4,1.3,3.5-2.3,4.2-7.1,7.5-9.5a6.11,6.11,0,0,1,6-.1c2.5,1.6.9,4.9,1.2,7.2,2-1.2,5.2-1.6,5.8-4.3,0.9-3.3-.1-6.8-0.4-10.1,5.8-1.5,12,1.1,16.7,4.4,0,5.5-3.2,10.2-5.2,15,7.6,0.2,10.4-9.4,18-9.4-1.2.6-2.3,1.3-3.5,1.9,1.5,1.1,3.1,2.2,4.7,3.3,0.8,6-2.2,11.3-4.8,16.5,5.5,1.3,8.5-4,12.4-6.5,2.6-1.9,5.8,1.4,5.4,4.1-0.3,4.1-2.3,7.8-3.2,11.8,1.8-.3,4.2.4,5.3-1.4,2.8-3.9,3-9.1,6.3-12.7a8.12,8.12,0,0,1,9.5,2.1c0.5,4.1-.5,8.3,1.3,12.2,1.7-1,4.9-.9,5.2-3.3,1-5.7-3.5-10.2-6.4-14.6,0.2-3.1,2-5.8,2.8-8.8,0.3-2.6-.3-5.2-0.7-7.8l6.6-3.6c-0.8,0-2.3.2-3,.2,3.9-.6,8.3-1.1,11.9,1,2.6,1.7,3.2,5.1,2.3,7.9-0.4,1.4-.6,2.9-0.9,4.3,1.7-1.3,3.7-2.3,4.9-4.1s0.5-4.3.1-6.3a33.33,33.33,0,0,0-7.4-11c3.5-2.2,6.2-5.8,10.1-7.3,4,0.2,4.3,5.4,6.5,7.9,0.4-2.8.3-6-2.3-7.7-5-3.7-12-6.3-17.9-3.4-5.1,2.3-9.1-3.9-14.2-3.6-3.2,1.5-5.4,4.5-8,6.8-2.3-.7-4.6-1.3-7-2,1.3-2.4,2.9-4.9,2.5-7.7-0.1-2.5-1.9-4.2-3.3-6,3.8-2.5,8.2-4.8,12.9-3.6,2.7,1.8,5,4.2,7.6,6.3,1.3-4,.3-9.6-4.2-10.9a69.34,69.34,0,0,1-14.7-4.5c-6.3-2.4-12.3,2.3-17.8,4.7-4.1,1.7-8.5,5.1-13,3.1-3.7-1.3-7.1-4.8-6.2-9,0.9-3.3,4.6-4.5,7.4-6a53.56,53.56,0,0,0,2.6,8.9c1.6-1.5,4.1-2.7,4.1-5.2,0.4-4.2-2.3-7.9-5.2-10.7-0.1-2.2-.3-4.4-0.4-6.6,3.5,0.8,7.1,1.9,9.4,4.8,0.1,0.6.2,1.8,0.3,2.4a23.21,23.21,0,0,0,3-4c-0.9-4.7-5.8-7.2-9.7-9.2-5.5-1.7-10.6,2.9-16.2,2.1-2.5.4-2.9-2.6-3.7-4.2,2.5-.2,5-0.3,7.4-0.5-1.7-3.3-5-5.9-8.9-5.6-4.5-.3-7.9,2.9-11.2,5.4-4.1.8-8.3-.8-11.8-2.9-6.8-4.6-10-12.4-13.5-19.5-3-6.5-6.2-13.9-4.1-21.1,1.5-5.1,9.2-8,12.9-3.5,1.9,3.8-.9,7.5-2.1,11a22,22,0,0,0,5.1-.4c3.9-3.5,3.8-9.2,3.3-14.1,2.1-1,4.1-2.5,6.4-3,2.8,0,5.4,1.5,7.9,2.7,0.3,5.2-1.7,10.1-1.4,15.3,2.1-.5,5.1-0.3,5.9-2.9,3.3-6.1-2.1-12.8-.1-18.9,3.8-1.8,8-1,12.1-1.2,1.5-.1,2.9-0.1,4.4-0.1,3.8,4.2,4.9,10,6,15.4,1-1.3,2.9-2.5,2.6-4.4-0.8-7.4-5.4-13.7-7.2-20.9a24.92,24.92,0,0,1,5.9-2.3c3.6,3.4,5.9,7.9,9,11.7,0.3-2.5,1.3-5.2,0-7.5-1.7-2.9-4.7-4.7-7.7-6.2-3.2-1.7-7.6-2.4-8.7-6.4-1.9-3.1.9-6.4,4-6.8,5.1-.9,11.2-1.2,15.4,2.2,3.6,3,2.5,8.1,2.1,12.2l4.3-.9a20.62,20.62,0,0,0-.7-8.9c2.5,0.3,5.1,0,7.6.2,5.5,5.4,5,14,2.8,20.7,4.6-1.4,6.8-5.8,8.8-9.8,4.8,0.5,10.4,1.9,13.1,6.3,2.1,3.2.2,7,.3,10.5,4.6-1.9,5.1-7.5,4-11.7-3.1-7.1-9.3-12.4-12.1-19.6a88,88,0,0,0,7.2-6.5,46.92,46.92,0,0,0,8.1,4,59,59,0,0,0,1.9,9.3c5.5-4,2-11.4.8-16.9h0Z" transform="translate(-114.8 -81.59)"/><path id="path24" class="cls-1" d="M415.7,398c2.9-1.1,6-.4,9-0.2-0.3.8-.5,1.7-0.8,2.5A28.56,28.56,0,0,0,415.7,398Z" transform="translate(-114.8 -81.59)"/><path id="path26" class="cls-1" d="M460,411.2c4-2.6,8.2-6.1,13.4-4.9q1.05,3.75,1.8,7.5c-1.8-2.1-3.3-4.8-6.2-5.4-3.2-.3-5,2.7-6.7,4.9C461.5,412.5,460.8,411.9,460,411.2Z" transform="translate(-114.8 -81.59)"/><path id="path28" class="cls-1" d="M353.4,412.9c1.7,0.1,1.5,4-.1,4.2A3.45,3.45,0,0,1,353.4,412.9Z" transform="translate(-114.8 -81.59)"/><path id="path30" class="cls-1" d="M379.3,417.8c2.9,1.5,6,3.3,7.7,6.2,1.3,2.3.3,5.1,0,7.5-3.1-3.8-5.3-8.3-9-11.7A9.86,9.86,0,0,0,379.3,417.8Z" transform="translate(-114.8 -81.59)"/><path id="path32" class="cls-1" d="M353.2,421.7c0.5-1.1,1-2.1,1.5-3.2a40,40,0,0,1,16.1,13.6c-1.5,0-2.9.1-4.4,0.2-0.6-1.8-1-3.9-2.7-5.1-4.4-3.2-9.9-4.1-14.9-5.7C350.3,421.6,351.8,421.6,353.2,421.7Z" transform="translate(-114.8 -81.59)"/><path id="path34" class="cls-1" d="M341,422.4a44,44,0,0,1,17.3,5.2c-2.5.9-5.1,2.7-7.8,1.9C346.9,427.8,344,425,341,422.4Z" transform="translate(-114.8 -81.59)"/><path id="path36" class="cls-1" d="M464,427.8c2.7-.7,5.5-2.7,8.3-1.2,3.2,1.9,4.7,5.8,4.6,9.4-1.8-2.2-3.2-4.9-5.5-6.6C469.1,428.3,466.5,428.3,464,427.8Z" transform="translate(-114.8 -81.59)"/><path id="path38" class="cls-1" d="M464,447.3c1.6-.2,3.3-0.3,5-0.5a44,44,0,0,0,5,3.8,28.1,28.1,0,0,1-9.6-.4C464.3,449.5,464.1,448.1,464,447.3Z" transform="translate(-114.8 -81.59)"/><path id="path40" class="cls-1" d="M494.3,457.6a25.46,25.46,0,0,1,2.2,9.8c1.6,0.1,3.2.1,4.8,0.2-3.7,2.1-7.3,4.8-11.8,4.3,1.6-2.5,4-4.6,5.3-7.3A27.54,27.54,0,0,0,494.3,457.6Z" transform="translate(-114.8 -81.59)"/><path id="path42" class="cls-1" d="M630.2,473.7c4,1.4,8.3,2.7,11.2,5.9,2.3,2.7,1,6.3.4,9.3-1.5-3.1-2-6.8-4.6-9.3-2.4-1.6-5.5-.8-8.2-0.4,1.5-.7,2.9-1.3,4.4-1.9C632.4,476.1,631.3,474.9,630.2,473.7Z" transform="translate(-114.8 -81.59)"/><path id="path44" class="cls-1" d="M606.4,482.9c3.5,0.7,7.3,1.6,9.2,5-2.2-.4-4.4-0.9-6.6-1.3l-0.9-.2C607.5,485.2,606.9,484,606.4,482.9Z" transform="translate(-114.8 -81.59)"/><path id="path46" class="cls-1" d="M609,486.5c2.2,0.4,4.4.9,6.6,1.3,0.5,0.1,1.4.3,1.8,0.4-1,1.4-2.4,2.9-2.3,4.8-0.2,5.2.1,10.8-3.1,15.3-1.5-4.9,1.3-9.4,1.7-14.1C613,491.2,610.8,488.9,609,486.5Z" transform="translate(-114.8 -81.59)"/><path id="path48" class="cls-1" d="M378.3,493.6c3.9,2,8.8,4.5,9.7,9.2a29.81,29.81,0,0,1-3,4c-0.1-.6-0.2-1.8-0.3-2.4-0.1-1.1-.2-2.2-0.2-3.4a66.15,66.15,0,0,0-7-3.6C377.6,496.5,378.1,494.6,378.3,493.6Z" transform="translate(-114.8 -81.59)"/><path id="path50" class="cls-1" d="M373.8,497.8a5.85,5.85,0,0,1,3.7-.3,66.14,66.14,0,0,1,7,3.6c0,1.1.1,2.2,0.2,3.4-2.3-2.9-5.9-4-9.4-4.8,0.1,2.2.2,4.4,0.4,6.6l-3.3-1.5C372.7,502.3,372.6,499.9,373.8,497.8Z" transform="translate(-114.8 -81.59)"/><path id="path52" class="cls-1" d="M171.8,503.8c2.1,0.4,4.1.8,6.1,1.3-18.1,14.8-39.1,28.6-63.1,30.3,0.6-2.8,1.3-6,4.1-7.4,7.7-4.5,17.5-2,25.3-6.4-9.1-.1-18.1,1.2-27.2.9-2-5.1-1.8-10.6-1.9-16a33.81,33.81,0,0,0,12.9,3C155,511,156.3,508.7,171.8,503.8Z" transform="translate(-114.8 -81.59)"/><path id="path54" class="cls-1" d="M403.8,520.3a69.34,69.34,0,0,0,14.7,4.5c4.5,1.3,5.5,6.9,4.2,10.9-1.6-3.6-2.2-8.4-6.3-10.1-3.8-1.3-8-.6-11.9,0-2.5.6-4.9,1.4-7.3,2.1a40.05,40.05,0,0,1,.8-4.8c2.3-1.1,4.8.9,7.1,1.3C404.6,522.8,404.2,521.5,403.8,520.3Z" transform="translate(-114.8 -81.59)"/><path id="path56" class="cls-1" d="M404.5,525.6c3.9-.6,8.1-1.3,11.9,0,4.1,1.6,4.7,6.5,6.3,10.1-2.5-2.1-4.8-4.5-7.6-6.3l1.6-2A31.19,31.19,0,0,0,404.5,525.6Z" transform="translate(-114.8 -81.59)"/><path id="path58" class="cls-1" d="M581.4,543.4c3.2-1.9,6.9-3.7,8-7.5a57.91,57.91,0,0,0,1.2,8.2C587.5,544,584.4,543.8,581.4,543.4Z" transform="translate(-114.8 -81.59)"/><path id="path60" class="cls-1" d="M210.8,545.1c1.7,0.4,3.4.8,5.2,1.1-1.1.5-2.3,1-3.4,1.5,0.2,1.6.4,3.3,0.7,5l-3.4-2.8C210.2,548.2,210.5,546.7,210.8,545.1Z" transform="translate(-114.8 -81.59)"/><path id="path62" class="cls-1" d="M197.5,562.1c4.6-3.6,9.3-7.3,12.4-12.3,1.1,0.9,2.2,1.9,3.4,2.8a13.44,13.44,0,0,0,5.7,2.9c0.9,4.6,5.5,6.5,9.8,6.1,0.1,2,.1,4.1.2,6.1-2.5.3-5,.5-7.5,0.8,1.1,2.4,2.4,5.7,5.6,5.2,5.2-1.9,8.1-7.3,13.3-9.2,3.3-1.1,6.1,2.5,5,5.6a53.53,53.53,0,0,1-5.6.7c1.8,1,3.8,2.7,6,1.9,2-.8,3.5-2.4,5.2-3.7,1,4.6,1.6,11.8-4.1,13.6-1.6.4-3.2,0.8-4.9,1.3,1.2,1.1,2.4,2.3,3.7,3.3,3.2,0.7,6.8-.3,9.7,1.4,2.1,2.9,1.4,7.1-1,9.6a41.27,41.27,0,0,1-5,1.5l0.4,2.4c6.3-.7,10-6.4,14.6-10.1a59,59,0,0,1-10.5,18.8c-1.8,2-3.7,4-6.2,4.9s-5.4-.2-8.1-0.4c1.4,1.4,2.6,3.2,4.5,4,2.6,0.6,5.1-.4,7.5-1.1-0.6,3.9,1.3,7.5,1.2,11.4-3.6,3.3-8.8,3.5-13.4,4,1.5,2.1,3.2,4.5,6,4.8,4.6,0.7,9.3.2,14,0,0.6,3.2,1.5,7.1-1.3,9.5-2.8,3-7.2,2.4-10.9,2.3,0.2,1,.3,2,0.5,3,3.9,0.9,9.1,3.1,12.4-.4,3.8-3.3,5.5-8.1,7.8-12.4,0.3-.5.9-1.4,1.2-1.8,2.1-2.5,4.4-5.3,4.3-8.8,0.4-2.9-2-4.9-3.5-7,5.1-1.3,11.3-2.5,15.6,1.4,3.1,3.6.6,8.6,0.5,12.8,5.1-3.5,9.6-10.4,6.3-16.5,4.7-3.3,9.7-6.3,13.6-10.6,2.1-2.1,2.1-5.2,2.9-7.9,1.7,3.7.3,7.6-1.7,10.9q1.65,2.85,3,5.7c-1.5,2.7-2.8,5.5-2.9,8.7,4.9-.2,6.7-5,8.7-8.7-0.2,3.6,0,7.2-.5,10.8-0.3,3-2.6,5.1-4.2,7.5,3.3,0.1,5.9-1.9,8.8-3,3,0,4,3.8,4.5,6.2,0.8,5.4-2.6,9.9-6.7,13,1.7,0.5,3.5,2.2,5.3,1,4.2-3,5.8-8.2,9.5-11.7a5.12,5.12,0,0,1,6-.7c3.7,2.7,4.7,7.4,6.3,11.4-1.2,1.5-2.3,3.4-4,4.5-2.3,1-4.8.9-7.2,1.1-36,.4-71.9,0-107.9.2-7.8-.1-15.6-0.3-23.4.6-5.8.3-11.7,0.9-17.5,0.2-2.9-.4-4.8-2.7-7-4.3,0.6-3.4,1-7.2,3.8-9.6,1.5-1.7,3.8-1.5,5.9-1.7,0.8,2.1,1.5,4.3,2.2,6.5,1.2-1.9,2.7-3.9,1.8-6.2-1.9-5.4-8.2-8.8-13.7-6.7-1.2-3.3-2.2-7.6-6.2-8.4-8-1.2-14.4,5.1-21,8.5-6.2,3.5-13.6.2-18.9-3.6-0.5-2.6-.6-5.3-1-8,1.2,0.6,2.5,1.2,3.7,1.8a15.05,15.05,0,0,0,1.1-2.2c2.4-5.4.3-11.6-.1-17.2,2.6-.7,6.4-2.4,8.3.5,2.8,4.3,1.7,10.1,4.9,14.3,4.7-4.1,2.8-10.8,3.7-16.3q3.15,0.15,6.3.6c0.8-2.9,1.6-5.7,2.3-8.6,3.3,1.5,6.6,3,10,4.2l0.6,0.2a46.88,46.88,0,0,0-.1,5.3,38.66,38.66,0,0,0,2.9-6.2c1.9,2.7,4.2,5.2,5.5,8.2,1.1,2.9,1,6.1,1.5,9.2,3.5-4,2.2-9.4,1.1-14,2.3-1,4.6-2.3,7.2-2.1s5.1,2.2,5,4.9c-0.8,1.2-1.9,2.3-2.8,3.4a26,26,0,0,1,1,2.5c0.5,0,1.7.1,2.2,0.1,0.8-1.9,1.5-3.8,2.2-5.7,0.4,1.2.8,2.4,1.2,3.7q3-1.2,6-2.1c2,4.3,4,9,3.4,13.9-0.2,2.8-3.3,3.8-5.1,5.5,0.7,1.1,1.4,2.1,2.1,3.1,3.7-1.2,5.8-5,7.6-8.2-1.6-6.6-3.2-13.3-1.8-20.1,1.3,1,2.7,1.9,4.1,2.9,1.9,1.2,3.1-1.8,4.6-2.7a59.08,59.08,0,0,1,8.6-5.4l0.8-.4a51.36,51.36,0,0,1,1.6,10.3c0.6,0.4,1.8,1.1,2.4,1.5,1.8-2.7,3.4-5.9,2.4-9.2a16.35,16.35,0,0,0-11.7-10.8c-3.9-1.1-8-1-12-1.9a30.44,30.44,0,0,1-1.7-3.7c0.6,0.1,1.8.2,2.4,0.3-1.2-3.9-4.3-8.2-2.3-12.4,0.3-.5.9-1.6,1.2-2.2-1.1-2.7-2.5-5.4-2.5-8.4A42.52,42.52,0,0,1,197.5,562.1Z" transform="translate(-114.8 -81.59)"/><path id="path64" class="cls-1" d="M356.6,556c1.4-3,4.4-4.2,7.6-4A29,29,0,0,1,356.6,556Z" transform="translate(-114.8 -81.59)"/><path id="path66" class="cls-1" d="M323.3,558.4c0.9-1.8,3.9-1.5,5.7-2.2,0.3,1,.9,2.9,1.2,3.9a31.59,31.59,0,0,1-8.1,2.4C322.5,561.1,322.9,559.8,323.3,558.4Z" transform="translate(-114.8 -81.59)"/><path id="path68" class="cls-1" d="M417,566.8c2.6-1.1,5.2-2.4,8-2.8,0.8,0,2.3-.2,3.1-0.2l-6.6,3.6c0.3,2.6,1,5.2.7,7.8-0.8,3-2.5,5.7-2.8,8.8-2.8-2.9-6-5.4-8.9-8.3,1.1-1.2,2.3-2.4,3.5-3.6,0.7,1.1,1.4,2.3,2.1,3.4,1,1.5,2.1,2.9,3.2,4.4,1.3-2.4,2.2-5.1,1.5-7.9C419.6,570.2,418.3,568.5,417,566.8Z" transform="translate(-114.8 -81.59)"/><path id="path70" class="cls-1" d="M443.4,566.9c0.3,2,1,4.4-.1,6.3s-3.2,2.8-4.9,4.1c0.3-1.5.6-2.9,0.9-4.3C440.2,570.7,441.9,568.8,443.4,566.9Z" transform="translate(-114.8 -81.59)"/><path id="path72" class="cls-1" d="M407.6,568.3c1.9,0.1,3.4,1.2,5,2.1-2.3.9-4.6,1.8-6.9,2.5A22.39,22.39,0,0,1,407.6,568.3Z" transform="translate(-114.8 -81.59)"/><path id="path74" class="cls-1" d="M200.6,568.7c4.1-.7,7.1,2,9.8,4.5-2.1,4.1,1.1,8.4,2.3,12.4-0.6-.1-1.8-0.2-2.4-0.3-0.8-2.8-.3-6.6-3.2-8.3a38.7,38.7,0,0,1-5.3-3.7A18.35,18.35,0,0,1,200.6,568.7Z" transform="translate(-114.8 -81.59)"/><path id="path76" class="cls-1" d="M420.8,572c0.7,2.8-.2,5.5-1.5,7.9-1.1-1.4-2.2-2.9-3.2-4.4C417.6,574.4,419.2,573.2,420.8,572Z" transform="translate(-114.8 -81.59)"/><path id="path78" class="cls-1" d="M241.9,584c1.6-.5,3.2-0.9,4.9-1.3,0.3,1.1.6,2.2,1,3.4a23.93,23.93,0,0,0-2.1,1.3C244.3,586.3,243.1,585.1,241.9,584Z" transform="translate(-114.8 -81.59)"/><path id="path80" class="cls-1" d="M166.9,594.8a64.92,64.92,0,0,1,2.6-7.4c0.2,2.5-.1,5,0.5,7.5,0.7,2.3,2.1,4.3,3.1,6.4C170.9,599.1,168.9,596.9,166.9,594.8Z" transform="translate(-114.8 -81.59)"/><path id="path82" class="cls-1" d="M161.2,599c3.5-4.2,9.5-.4,10,4.2A96.31,96.31,0,0,1,161.2,599Z" transform="translate(-114.8 -81.59)"/><path id="path84" class="cls-1" d="M223.7,598.8c1.6-.6,3.1.2,4.6,0.7a59.07,59.07,0,0,0-8.6,5.4C220.7,602.7,221.7,600.3,223.7,598.8Z" transform="translate(-114.8 -81.59)"/><path id="path86" class="cls-1" d="M198.3,601.2c1.2-.8,2.6,1.2,1.5,2.1C198.6,604,197.2,602,198.3,601.2Z" transform="translate(-114.8 -81.59)"/><path id="path88" class="cls-1" d="M211.1,604.8c1.4-1.3,2.8-2.6,4.3-3.9,0,2.2-.1,4.5-0.2,6.7C213.8,606.7,212.4,605.8,211.1,604.8Z" transform="translate(-114.8 -81.59)"/><path id="path90" class="cls-1" d="M361.3,618a38.08,38.08,0,0,1,.5-5.9c0.4,2.4,1.2,4.9.9,7.3-0.6,2.8-2.1,5.3-3.4,7.8-2.5-3.3-5.9-6.3-6.2-10.7,1.7,0.3,3.5.6,5.2,1,0,1.9-.1,3.8-0.1,5.7,0.8-.1,2.2-0.5,3-0.6C361.2,621.1,361.2,619.5,361.3,618Z" transform="translate(-114.8 -81.59)"/><path id="path92" class="cls-1" d="M127.2,613.8a11.22,11.22,0,0,1,5.1,5A40.16,40.16,0,0,1,127.2,613.8Z" transform="translate(-114.8 -81.59)"/><path id="path94" class="cls-1" d="M358.2,617.6l3.1,0.4c-0.1,1.5-.1,3.1-0.2,4.6-0.8.2-2.2,0.5-3,.6C358.1,621.3,358.2,619.4,358.2,617.6Z" transform="translate(-114.8 -81.59)"/><path id="path96" class="cls-1" d="M123.7,625.4c2.7-1.3,5.5-2.3,8.1-3.6,0.1,1.3.3,2.6,0.5,3.9,1.1,0.1,2.2.1,3.3,0.1a15.05,15.05,0,0,0-1.1,2.2c-1.2-.6-2.5-1.2-3.7-1.8C128.6,624.9,126.1,625.5,123.7,625.4Z" transform="translate(-114.8 -81.59)"/><path id="path98" class="cls-1" d="M262.4,630.8a41.71,41.71,0,0,1,7.1-.8,43.45,43.45,0,0,1-1.8,7.1c0.3,0.4,1,1.2,1.4,1.7-0.3.5-.9,1.4-1.2,1.8A20.83,20.83,0,0,1,262.4,630.8Z" transform="translate(-114.8 -81.59)"/><path id="path100" class="cls-1" d="M347,644c2.6,3.6,2.9,8,3.9,12.2,0.4,0.8.3,2.4,1.5,2.5,6.1,1.5,12.4.6,18.6,0.7q228.45,0,457,0a24.82,24.82,0,0,0,10.7-2.6c-10.5-1.1-21.1-.2-31.7-0.5H516c-6.7-.1-13.6,1-20-1.3,51.7-.4,103.3,0,155-0.2H841.1V660q-246.45-.15-492.8-0.1A29.73,29.73,0,0,0,347,644Z" transform="translate(-114.8 -81.59)"/><path id="path102" class="cls-1" d="M341.1,657.8c1.7-1.1,2.7-2.9,4-4.5,0.3,1.4.7,2.8,1,4.2-1.8,1.3-3.6,2.7-6,2.5-28.7-.1-57.4,0-86.1,0-17.1-.2-34.3.4-51.4-0.4,7.8-.9,15.6-0.7,23.4-0.6,36-.3,71.9.2,107.9-0.2A22,22,0,0,0,341.1,657.8Z" transform="translate(-114.8 -81.59)"/><text class="cls-2" transform="translate(21.9 712.65)">PO<tspan class="cls-3" x="178.49" y="0">L</tspan><tspan x="238.55" y="0">Y</tspan><tspan class="cls-4" x="323.18" y="0">WA</tspan><tspan x="531.18" y="0">VE</tspan></text><text x="-114.8" y="-81.59"/><path id="path3139" class="cls-1" d="M459.48,82.34c-65.1,3.2-133.9,27.4-188.2,66.2-82,58.5-135.6,146.1-149.8,244.8-2.5,17.2-4.3,49.4-3.4,60.2,0.6,7.7.6,7.8,3.4,7.8h2.7l0.6-23.8c1.1-45,9.5-85.4,26.4-126.7,49-119.9,153.9-200.8,284.8-219.7,13.8-1.9,20-2.3,45.5-2.3s31.7,0.4,45.5,2.3c61.3,8.9,115.4,30.4,164.2,65.4,71.2,51.1,121.3,128.9,139.9,217.3,5.6,27,6.9,39.7,6.9,71.5,0,25.1-.4,31.7-2.2,44.5-3.9,26.3-8.7,46.9-16.3,69.5-2.2,6.4-4,11.9-4,12.2s1.6,0.2,3.6,0c4.1-.5,4.7-1.5,8.8-15,10.1-32.5,15.1-60,16.6-92.5,2.6-53.5-5.4-103-24.5-151.8-52.1-132.6-177.1-222.7-319-229.9-19.6-1-20.2-1-41.5,0h0Z" transform="translate(-114.8 -81.59)"/><path id="path3141" class="cls-1" d="M459.84,143.33c-77.6,5.6-144.3,35.9-198.4,89.9-48.1,48.1-76.7,105-87.4,173.7-0.6,3.9-.5,4.2,2.2,4.7a7.5,7.5,0,0,0,3.2.2c0.1-.2,1.2-5.4,2.2-11.5,8.6-49.5,30.5-98.3,62.1-138.2,10.4-13.2,33.4-36.2,46.6-46.6a309.8,309.8,0,0,1,161.1-65.2c22.8-2.2,53.2-1.1,77.4,3a311.23,311.23,0,0,1,138.9,62.2c13.2,10.4,36.2,33.4,46.6,46.6,53.7,67.9,76.3,154.7,62.2,238.5-3.8,22.2-12,50-20.4,69l-2.6,5.8,2.6,0.9a13.16,13.16,0,0,0,3.3,1c0.5,0,3.1-5.7,5.9-12.8,14.6-36.9,21.5-73.4,21.5-113.7,0-83.3-31.3-158.6-90.2-217.6-37.1-37.1-78.1-61.8-127.6-77-33.1-10.2-76.4-15.3-109.2-12.9h0Z" transform="translate(-114.8 -81.59)"/><path id="path3143" class="cls-1" d="M461.58,209.32a196.33,196.33,0,0,0-41,7c-3.8,1.1-10.3,3-14.3,4.1-9.1,2.4-31.7,12.3-43.7,19.1-52.7,29.8-93.8,80.6-111.1,137.3-1.9,6-3.4,11.1-3.4,11.2s1.7,0.3,3.9.3h3.9l1.6-6.8c5.1-20.2,20.6-50.8,36.9-72.9,8.4-11.4,34.9-38.6,42.7-43.8,2.5-1.6,6.1-4.2,8-5.7s8.5-5.7,14.5-9.4c28-17.1,60.2-28.3,94.5-32.9,20.6-2.8,50.5-1.6,72,3a358.07,358.07,0,0,1,39.5,11.5c17.4,7,40.7,19.5,51.5,27.8,1.9,1.5,5.5,4.1,8,5.7,7.8,5.2,34.3,32.4,42.7,43.8a239.74,239.74,0,0,1,37.7,75.7c7.1,25.1,9.6,42,9.6,65a190.4,190.4,0,0,1-4.1,42.5c-3.8,19.1-12.2,45.4-16.6,52a8,8,0,0,0-1.3,3.5c0,0.8-3.4,7.5-7.5,14.9s-7.5,13.7-7.5,14c0.1,0.8,5.1,4.4,5.4,3.9,6.2-8.3,20.7-37.8,25.1-51.5,4.2-12.6,9.3-33,11-44.3,2.4-14.7,2.4-55.3,0-70a256,256,0,0,0-20.4-67,242.77,242.77,0,0,0-99.6-107.8c-10.9-6.2-34.6-16.7-41.8-18.6-2.8-.8-10-2.8-15.9-4.4-22.6-6.4-50.8-8.9-80.3-7.2h0Z" transform="translate(-114.8 -81.59)"/><path id="path3145" class="cls-1" d="M469.78,277.33c-2.3.4-2.8,1-2.8,3.2v2.8l15.3,0.6c29.7,1.1,56.4,9.1,82.4,24.8a152.4,152.4,0,0,1,40.7,35.4c11.6,14.4,20.3,28.9,26.5,44.7,2.5,6.2,2.6,6.3,6.5,4.8l2.6-.9-2.1-5.3a174.54,174.54,0,0,0-40.6-60.9q-37.35-36.6-88-46.3c-12.1-2.3-34.4-3.9-40.5-2.9h0Z" transform="translate(-114.8 -81.59)"/></svg>